%TF.GenerationSoftware,KiCad,Pcbnew,(5.1.8-0-10_14)*%
%TF.CreationDate,2021-01-24T15:40:33+09:00*%
%TF.ProjectId,Micromouse,4d696372-6f6d-46f7-9573-652e6b696361,rev?*%
%TF.SameCoordinates,Original*%
%TF.FileFunction,Other,User*%
%FSLAX46Y46*%
G04 Gerber Fmt 4.6, Leading zero omitted, Abs format (unit mm)*
G04 Created by KiCad (PCBNEW (5.1.8-0-10_14)) date 2021-01-24 15:40:33*
%MOMM*%
%LPD*%
G01*
G04 APERTURE LIST*
%ADD10C,0.050000*%
G04 APERTURE END LIST*
D10*
%TO.C,U4*%
X157632000Y-76823200D02*
X157632000Y-72483200D01*
X157632000Y-76823200D02*
X161032000Y-76823200D01*
X161032000Y-72483200D02*
X157632000Y-72483200D01*
X161032000Y-72483200D02*
X161032000Y-76823200D01*
%TO.C,TP1*%
X120454000Y-87226200D02*
G75*
G03*
X120454000Y-87226200I-1000000J0D01*
G01*
%TO.C,CN2*%
X169100000Y-92400000D02*
X169100000Y-85500000D01*
X163600000Y-92400000D02*
X169100000Y-92400000D01*
X163600000Y-85500000D02*
X163600000Y-92400000D01*
X169100000Y-85500000D02*
X163600000Y-85500000D01*
%TO.C,U3*%
X140550000Y-88900000D02*
X144700000Y-88900000D01*
X140550000Y-87450000D02*
X140550000Y-88900000D01*
X139450000Y-87450000D02*
X140550000Y-87450000D01*
X139450000Y-86350000D02*
X139450000Y-87450000D01*
X138000000Y-86350000D02*
X139450000Y-86350000D01*
X138000000Y-82200000D02*
X138000000Y-86350000D01*
X140550000Y-75500000D02*
X144700000Y-75500000D01*
X140550000Y-76950000D02*
X140550000Y-75500000D01*
X139450000Y-76950000D02*
X140550000Y-76950000D01*
X139450000Y-78050000D02*
X139450000Y-76950000D01*
X138000000Y-78050000D02*
X139450000Y-78050000D01*
X138000000Y-82200000D02*
X138000000Y-78050000D01*
X148850000Y-88900000D02*
X144700000Y-88900000D01*
X148850000Y-87450000D02*
X148850000Y-88900000D01*
X149950000Y-87450000D02*
X148850000Y-87450000D01*
X149950000Y-86350000D02*
X149950000Y-87450000D01*
X151400000Y-86350000D02*
X149950000Y-86350000D01*
X151400000Y-82200000D02*
X151400000Y-86350000D01*
X148850000Y-75500000D02*
X144700000Y-75500000D01*
X148850000Y-76950000D02*
X148850000Y-75500000D01*
X149950000Y-76950000D02*
X148850000Y-76950000D01*
X149950000Y-78050000D02*
X149950000Y-76950000D01*
X151400000Y-78050000D02*
X149950000Y-78050000D01*
X151400000Y-82200000D02*
X151400000Y-78050000D01*
%TO.C,C10*%
X139330000Y-77880000D02*
X137870000Y-77880000D01*
X137870000Y-77880000D02*
X137870000Y-74920000D01*
X137870000Y-74920000D02*
X139330000Y-74920000D01*
X139330000Y-74920000D02*
X139330000Y-77880000D01*
%TO.C,C14*%
X141736400Y-72081000D02*
X143196400Y-72081000D01*
X143196400Y-72081000D02*
X143196400Y-75041000D01*
X143196400Y-75041000D02*
X141736400Y-75041000D01*
X141736400Y-75041000D02*
X141736400Y-72081000D01*
%TO.C,C12*%
X149073760Y-89116980D02*
X149073760Y-87656980D01*
X149073760Y-87656980D02*
X152033760Y-87656980D01*
X152033760Y-87656980D02*
X152033760Y-89116980D01*
X152033760Y-89116980D02*
X149073760Y-89116980D01*
%TO.C,CN1*%
X169100000Y-92650000D02*
X163600000Y-92650000D01*
X163600000Y-92650000D02*
X163600000Y-99550000D01*
X163600000Y-99550000D02*
X169100000Y-99550000D01*
X169100000Y-99550000D02*
X169100000Y-92650000D01*
%TO.C,R1*%
X171920000Y-90130000D02*
X171920000Y-88670000D01*
X171920000Y-88670000D02*
X174880000Y-88670000D01*
X174880000Y-88670000D02*
X174880000Y-90130000D01*
X174880000Y-90130000D02*
X171920000Y-90130000D01*
%TO.C,D8*%
X132569505Y-54086517D02*
X119046543Y-50463050D01*
X119046543Y-50463050D02*
X117377160Y-56693272D01*
X117377160Y-56693272D02*
X130900122Y-60316738D01*
X130900122Y-60316738D02*
X132569505Y-54086517D01*
%TO.C,D9*%
X112190000Y-86950000D02*
X112190000Y-72950000D01*
X112190000Y-72950000D02*
X105740000Y-72950000D01*
X105740000Y-72950000D02*
X105740000Y-86950000D01*
X105740000Y-86950000D02*
X112190000Y-86950000D01*
%TO.C,Q1*%
X171000000Y-85300000D02*
X167600000Y-85300000D01*
X167600000Y-85300000D02*
X167600000Y-81800000D01*
X167600000Y-81800000D02*
X171000000Y-81800000D01*
X171000000Y-81800000D02*
X171000000Y-85300000D01*
%TO.C,U2*%
X140100000Y-132450000D02*
X149100000Y-132450000D01*
X140100000Y-122950000D02*
X149100000Y-122950000D01*
X140100000Y-132450000D02*
X140100000Y-122950000D01*
X149100000Y-132450000D02*
X149100000Y-122950000D01*
%TO.C,J7*%
X105700000Y-132780000D02*
X105700000Y-142680000D01*
X121990000Y-132780000D02*
X105700000Y-132780000D01*
X121990000Y-142680000D02*
X121990000Y-132780000D01*
X105700000Y-142680000D02*
X121990000Y-142680000D01*
%TO.C,J8*%
X167400000Y-132780000D02*
X167400000Y-142680000D01*
X183690000Y-132780000D02*
X167400000Y-132780000D01*
X183690000Y-142680000D02*
X183690000Y-132780000D01*
X167400000Y-142680000D02*
X183690000Y-142680000D01*
%TO.C,SW3*%
X158244000Y-136850000D02*
X161944000Y-136850000D01*
X161944000Y-136850000D02*
X161944000Y-142550000D01*
X161944000Y-142550000D02*
X158244000Y-142550000D01*
X158244000Y-142550000D02*
X158244000Y-136850000D01*
%TO.C,U5*%
X165400000Y-68400000D02*
X165400000Y-63000000D01*
X165400000Y-63000000D02*
X158000000Y-63000000D01*
X158000000Y-63000000D02*
X158000000Y-68400000D01*
X158000000Y-68400000D02*
X165400000Y-68400000D01*
%TO.C,U6*%
X124000000Y-68400000D02*
X131400000Y-68400000D01*
X124000000Y-63000000D02*
X124000000Y-68400000D01*
X131400000Y-63000000D02*
X124000000Y-63000000D01*
X131400000Y-68400000D02*
X131400000Y-63000000D01*
%TO.C,D7*%
X156827907Y-54076858D02*
X158497290Y-60307079D01*
X170350869Y-50453391D02*
X156827907Y-54076858D01*
X172020251Y-56683613D02*
X170350869Y-50453391D01*
X158497290Y-60307079D02*
X172020251Y-56683613D01*
%TO.C,D6*%
X177200000Y-86950000D02*
X183650000Y-86950000D01*
X177200000Y-72950000D02*
X177200000Y-86950000D01*
X183650000Y-72950000D02*
X177200000Y-72950000D01*
X183650000Y-86950000D02*
X183650000Y-72950000D01*
%TO.C,U1*%
X161700000Y-95050000D02*
X161700000Y-83950000D01*
X154700000Y-95050000D02*
X161700000Y-95050000D01*
X154700000Y-83950000D02*
X154700000Y-95050000D01*
X161700000Y-83950000D02*
X154700000Y-83950000D01*
%TO.C,SW4*%
X162850000Y-136850000D02*
X166550000Y-136850000D01*
X166550000Y-136850000D02*
X166550000Y-142550000D01*
X166550000Y-142550000D02*
X162850000Y-142550000D01*
X162850000Y-142550000D02*
X162850000Y-136850000D01*
%TO.C,SW2*%
X112450000Y-88850000D02*
X112450000Y-92550000D01*
X112450000Y-92550000D02*
X106750000Y-92550000D01*
X106750000Y-92550000D02*
X106750000Y-88850000D01*
X106750000Y-88850000D02*
X112450000Y-88850000D01*
%TO.C,ON*%
X173350000Y-90750000D02*
X182850000Y-90750000D01*
X182850000Y-90750000D02*
X182850000Y-95950000D01*
X182850000Y-95950000D02*
X173350000Y-95950000D01*
X173350000Y-95950000D02*
X173350000Y-90750000D01*
%TO.C,R26*%
X124567840Y-62916880D02*
X124567840Y-61456880D01*
X124567840Y-61456880D02*
X127527840Y-61456880D01*
X127527840Y-61456880D02*
X127527840Y-62916880D01*
X127527840Y-62916880D02*
X124567840Y-62916880D01*
%TO.C,R25*%
X120971200Y-64524700D02*
X120971200Y-63064700D01*
X120971200Y-63064700D02*
X123931200Y-63064700D01*
X123931200Y-63064700D02*
X123931200Y-64524700D01*
X123931200Y-64524700D02*
X120971200Y-64524700D01*
%TO.C,R24*%
X112420000Y-86430000D02*
X112420000Y-84970000D01*
X112420000Y-84970000D02*
X115380000Y-84970000D01*
X115380000Y-84970000D02*
X115380000Y-86430000D01*
X115380000Y-86430000D02*
X112420000Y-86430000D01*
%TO.C,R23*%
X135770000Y-59420000D02*
X137230000Y-59420000D01*
X137230000Y-59420000D02*
X137230000Y-62380000D01*
X137230000Y-62380000D02*
X135770000Y-62380000D01*
X135770000Y-62380000D02*
X135770000Y-59420000D01*
%TO.C,R22*%
X132930000Y-64017400D02*
X131470000Y-64017400D01*
X131470000Y-64017400D02*
X131470000Y-61057400D01*
X131470000Y-61057400D02*
X132930000Y-61057400D01*
X132930000Y-61057400D02*
X132930000Y-64017400D01*
%TO.C,R21*%
X134434100Y-64080700D02*
X134434100Y-65540700D01*
X134434100Y-65540700D02*
X131474100Y-65540700D01*
X131474100Y-65540700D02*
X131474100Y-64080700D01*
X131474100Y-64080700D02*
X134434100Y-64080700D01*
%TO.C,R20*%
X112420000Y-84030000D02*
X112420000Y-82570000D01*
X112420000Y-82570000D02*
X115380000Y-82570000D01*
X115380000Y-82570000D02*
X115380000Y-84030000D01*
X115380000Y-84030000D02*
X112420000Y-84030000D01*
%TO.C,R19*%
X157680000Y-63070000D02*
X157680000Y-64530000D01*
X157680000Y-64530000D02*
X154720000Y-64530000D01*
X154720000Y-64530000D02*
X154720000Y-63070000D01*
X154720000Y-63070000D02*
X157680000Y-63070000D01*
%TO.C,R18*%
X154720000Y-66180000D02*
X154720000Y-64720000D01*
X154720000Y-64720000D02*
X157680000Y-64720000D01*
X157680000Y-64720000D02*
X157680000Y-66180000D01*
X157680000Y-66180000D02*
X154720000Y-66180000D01*
%TO.C,R17*%
X133770000Y-59420000D02*
X135230000Y-59420000D01*
X135230000Y-59420000D02*
X135230000Y-62380000D01*
X135230000Y-62380000D02*
X133770000Y-62380000D01*
X133770000Y-62380000D02*
X133770000Y-59420000D01*
%TO.C,R16*%
X153970000Y-59420000D02*
X155430000Y-59420000D01*
X155430000Y-59420000D02*
X155430000Y-62380000D01*
X155430000Y-62380000D02*
X153970000Y-62380000D01*
X153970000Y-62380000D02*
X153970000Y-59420000D01*
%TO.C,R15*%
X151970000Y-59420000D02*
X153430000Y-59420000D01*
X153430000Y-59420000D02*
X153430000Y-62380000D01*
X153430000Y-62380000D02*
X151970000Y-62380000D01*
X151970000Y-62380000D02*
X151970000Y-59420000D01*
%TO.C,R14*%
X169030000Y-67751200D02*
X167570000Y-67751200D01*
X167570000Y-67751200D02*
X167570000Y-64791200D01*
X167570000Y-64791200D02*
X169030000Y-64791200D01*
X169030000Y-64791200D02*
X169030000Y-67751200D01*
%TO.C,R13*%
X176980000Y-84970000D02*
X176980000Y-86430000D01*
X176980000Y-86430000D02*
X174020000Y-86430000D01*
X174020000Y-86430000D02*
X174020000Y-84970000D01*
X174020000Y-84970000D02*
X176980000Y-84970000D01*
%TO.C,R12*%
X176980000Y-82570000D02*
X176980000Y-84030000D01*
X176980000Y-84030000D02*
X174020000Y-84030000D01*
X174020000Y-84030000D02*
X174020000Y-82570000D01*
X174020000Y-82570000D02*
X176980000Y-82570000D01*
%TO.C,R11*%
X167230000Y-66100200D02*
X165770000Y-66100200D01*
X165770000Y-66100200D02*
X165770000Y-63140200D01*
X165770000Y-63140200D02*
X167230000Y-63140200D01*
X167230000Y-63140200D02*
X167230000Y-66100200D01*
%TO.C,R10*%
X155870000Y-135320000D02*
X157330000Y-135320000D01*
X157330000Y-135320000D02*
X157330000Y-138280000D01*
X157330000Y-138280000D02*
X155870000Y-138280000D01*
X155870000Y-138280000D02*
X155870000Y-135320000D01*
%TO.C,R9*%
X153970000Y-135320000D02*
X155430000Y-135320000D01*
X155430000Y-135320000D02*
X155430000Y-138280000D01*
X155430000Y-138280000D02*
X153970000Y-138280000D01*
X153970000Y-138280000D02*
X153970000Y-135320000D01*
%TO.C,R8*%
X131004400Y-79054200D02*
X129544400Y-79054200D01*
X129544400Y-79054200D02*
X129544400Y-76094200D01*
X129544400Y-76094200D02*
X131004400Y-76094200D01*
X131004400Y-76094200D02*
X131004400Y-79054200D01*
%TO.C,R7*%
X132580000Y-79370000D02*
X132580000Y-80830000D01*
X132580000Y-80830000D02*
X129620000Y-80830000D01*
X129620000Y-80830000D02*
X129620000Y-79370000D01*
X129620000Y-79370000D02*
X132580000Y-79370000D01*
%TO.C,R6*%
X152070000Y-138280000D02*
X152070000Y-135320000D01*
X153530000Y-138280000D02*
X152070000Y-138280000D01*
X153530000Y-135320000D02*
X153530000Y-138280000D01*
X152070000Y-135320000D02*
X153530000Y-135320000D01*
%TO.C,R5*%
X150170000Y-135320000D02*
X151630000Y-135320000D01*
X151630000Y-135320000D02*
X151630000Y-138280000D01*
X151630000Y-138280000D02*
X150170000Y-138280000D01*
X150170000Y-138280000D02*
X150170000Y-135320000D01*
%TO.C,R4*%
X161294400Y-76653500D02*
X162754400Y-76653500D01*
X162754400Y-76653500D02*
X162754400Y-79613500D01*
X162754400Y-79613500D02*
X161294400Y-79613500D01*
X161294400Y-79613500D02*
X161294400Y-76653500D01*
%TO.C,R3*%
X167250000Y-82580000D02*
X165350000Y-82580000D01*
X165350000Y-82580000D02*
X165350000Y-79220000D01*
X165350000Y-79220000D02*
X167250000Y-79220000D01*
X167250000Y-79220000D02*
X167250000Y-82580000D01*
%TO.C,R2*%
X165150000Y-84380000D02*
X163250000Y-84380000D01*
X163250000Y-84380000D02*
X163250000Y-81020000D01*
X163250000Y-81020000D02*
X165150000Y-81020000D01*
X165150000Y-81020000D02*
X165150000Y-84380000D01*
%TO.C,Q2*%
X129000000Y-80700000D02*
X125600000Y-80700000D01*
X125600000Y-80700000D02*
X125600000Y-77200000D01*
X125600000Y-77200000D02*
X129000000Y-77200000D01*
X129000000Y-77200000D02*
X129000000Y-80700000D01*
%TO.C,LS1*%
X118750000Y-80700000D02*
X118750000Y-75000000D01*
X125150000Y-80700000D02*
X118750000Y-80700000D01*
X125150000Y-75000000D02*
X125150000Y-80700000D01*
X118750000Y-75000000D02*
X125150000Y-75000000D01*
%TO.C,J6*%
X105900000Y-97000000D02*
X105900000Y-93450000D01*
X105900000Y-93450000D02*
X117100000Y-93450000D01*
X117100000Y-93450000D02*
X117100000Y-97000000D01*
X117100000Y-97000000D02*
X105900000Y-97000000D01*
%TO.C,J5*%
X120454000Y-92306200D02*
G75*
G03*
X120454000Y-92306200I-1000000J0D01*
G01*
%TO.C,J3*%
X120454000Y-89766200D02*
G75*
G03*
X120454000Y-89766200I-1000000J0D01*
G01*
%TO.C,J1*%
X123900000Y-139225000D02*
X123900000Y-135675000D01*
X123900000Y-135675000D02*
X132550000Y-135675000D01*
X132550000Y-135675000D02*
X132550000Y-139225000D01*
X132550000Y-139225000D02*
X123900000Y-139225000D01*
%TO.C,D5*%
X157330000Y-142280000D02*
X155870000Y-142280000D01*
X155870000Y-142280000D02*
X155870000Y-139320000D01*
X155870000Y-139320000D02*
X157330000Y-139320000D01*
X157330000Y-139320000D02*
X157330000Y-142280000D01*
%TO.C,D4*%
X155430000Y-142280000D02*
X153970000Y-142280000D01*
X153970000Y-142280000D02*
X153970000Y-139320000D01*
X153970000Y-139320000D02*
X155430000Y-139320000D01*
X155430000Y-139320000D02*
X155430000Y-142280000D01*
%TO.C,D3*%
X153530000Y-142280000D02*
X152070000Y-142280000D01*
X152070000Y-142280000D02*
X152070000Y-139320000D01*
X152070000Y-139320000D02*
X153530000Y-139320000D01*
X153530000Y-139320000D02*
X153530000Y-142280000D01*
%TO.C,D2*%
X151630000Y-142287500D02*
X150170000Y-142287500D01*
X150170000Y-142287500D02*
X150170000Y-139327500D01*
X150170000Y-139327500D02*
X151630000Y-139327500D01*
X151630000Y-139327500D02*
X151630000Y-142287500D01*
%TO.C,D1*%
X159720000Y-81280000D02*
X159720000Y-79820000D01*
X159720000Y-79820000D02*
X162680000Y-79820000D01*
X162680000Y-79820000D02*
X162680000Y-81280000D01*
X162680000Y-81280000D02*
X159720000Y-81280000D01*
%TO.C,C24*%
X155935000Y-72665200D02*
X157395000Y-72665200D01*
X157395000Y-72665200D02*
X157395000Y-75625200D01*
X157395000Y-75625200D02*
X155935000Y-75625200D01*
X155935000Y-75625200D02*
X155935000Y-72665200D01*
%TO.C,C23*%
X147222800Y-89226000D02*
X148682800Y-89226000D01*
X148682800Y-89226000D02*
X148682800Y-92186000D01*
X148682800Y-92186000D02*
X147222800Y-92186000D01*
X147222800Y-92186000D02*
X147222800Y-89226000D01*
%TO.C,C22*%
X123918500Y-66874700D02*
X123918500Y-68334700D01*
X123918500Y-68334700D02*
X120958500Y-68334700D01*
X120958500Y-68334700D02*
X120958500Y-66874700D01*
X120958500Y-66874700D02*
X123918500Y-66874700D01*
%TO.C,C21*%
X158520000Y-70130000D02*
X158520000Y-68670000D01*
X158520000Y-68670000D02*
X161480000Y-68670000D01*
X161480000Y-68670000D02*
X161480000Y-70130000D01*
X161480000Y-70130000D02*
X158520000Y-70130000D01*
%TO.C,C20*%
X149220000Y-126000000D02*
X151180000Y-126000000D01*
X151180000Y-126000000D02*
X151180000Y-129400000D01*
X151180000Y-129400000D02*
X149220000Y-129400000D01*
X149220000Y-129400000D02*
X149220000Y-126000000D01*
%TO.C,C19*%
X138020000Y-126000000D02*
X139980000Y-126000000D01*
X139980000Y-126000000D02*
X139980000Y-129400000D01*
X139980000Y-129400000D02*
X138020000Y-129400000D01*
X138020000Y-129400000D02*
X138020000Y-126000000D01*
%TO.C,C18*%
X148150000Y-135416000D02*
X148150000Y-137916000D01*
X148150000Y-137916000D02*
X149300000Y-137916000D01*
X149300000Y-137916000D02*
X149300000Y-140016000D01*
X149300000Y-140016000D02*
X148150000Y-140016000D01*
X148150000Y-140016000D02*
X148150000Y-142516000D01*
X142200000Y-142516000D02*
X148150000Y-142516000D01*
X142200000Y-135416000D02*
X148150000Y-135416000D01*
X141050000Y-141366000D02*
X142200000Y-142516000D01*
X141050000Y-136566000D02*
X142200000Y-135416000D01*
X141050000Y-136566000D02*
X141050000Y-137916000D01*
X141050000Y-140016000D02*
X141050000Y-141366000D01*
X141050000Y-137916000D02*
X139900000Y-137916000D01*
X139900000Y-137916000D02*
X139900000Y-140016000D01*
X139900000Y-140016000D02*
X141050000Y-140016000D01*
%TO.C,C17*%
X142874600Y-122547000D02*
X142874600Y-120587000D01*
X142874600Y-120587000D02*
X146274600Y-120587000D01*
X146274600Y-120587000D02*
X146274600Y-122547000D01*
X146274600Y-122547000D02*
X142874600Y-122547000D01*
%TO.C,C15*%
X143336600Y-72081000D02*
X144796600Y-72081000D01*
X144796600Y-72081000D02*
X144796600Y-75041000D01*
X144796600Y-75041000D02*
X143336600Y-75041000D01*
X143336600Y-75041000D02*
X143336600Y-72081000D01*
%TO.C,C13*%
X149055980Y-76792900D02*
X149055980Y-75332900D01*
X149055980Y-75332900D02*
X152015980Y-75332900D01*
X152015980Y-75332900D02*
X152015980Y-76792900D01*
X152015980Y-76792900D02*
X149055980Y-76792900D01*
%TO.C,C11*%
X137870000Y-86520000D02*
X139330000Y-86520000D01*
X139330000Y-86520000D02*
X139330000Y-89480000D01*
X139330000Y-89480000D02*
X137870000Y-89480000D01*
X137870000Y-89480000D02*
X137870000Y-86520000D01*
%TO.C,C9*%
X137730000Y-77880000D02*
X136270000Y-77880000D01*
X136270000Y-77880000D02*
X136270000Y-74920000D01*
X136270000Y-74920000D02*
X137730000Y-74920000D01*
X137730000Y-74920000D02*
X137730000Y-77880000D01*
%TO.C,C8*%
X166180000Y-133970000D02*
X166180000Y-135430000D01*
X166180000Y-135430000D02*
X163220000Y-135430000D01*
X163220000Y-135430000D02*
X163220000Y-133970000D01*
X163220000Y-133970000D02*
X166180000Y-133970000D01*
%TO.C,C7*%
X116130000Y-92480000D02*
X114670000Y-92480000D01*
X114670000Y-92480000D02*
X114670000Y-89520000D01*
X114670000Y-89520000D02*
X116130000Y-89520000D01*
X116130000Y-89520000D02*
X116130000Y-92480000D01*
%TO.C,C6*%
X134091000Y-85339800D02*
X135551000Y-85339800D01*
X135551000Y-85339800D02*
X135551000Y-88299800D01*
X135551000Y-88299800D02*
X134091000Y-88299800D01*
X134091000Y-88299800D02*
X134091000Y-85339800D01*
%TO.C,C5*%
X161480000Y-133970000D02*
X161480000Y-135430000D01*
X161480000Y-135430000D02*
X158520000Y-135430000D01*
X158520000Y-135430000D02*
X158520000Y-133970000D01*
X158520000Y-133970000D02*
X161480000Y-133970000D01*
%TO.C,C4*%
X157648800Y-79244000D02*
X157648800Y-77784000D01*
X157648800Y-77784000D02*
X160608800Y-77784000D01*
X160608800Y-77784000D02*
X160608800Y-79244000D01*
X160608800Y-79244000D02*
X157648800Y-79244000D01*
%TO.C,C3*%
X155032600Y-83358800D02*
X155032600Y-81898800D01*
X155032600Y-81898800D02*
X157992600Y-81898800D01*
X157992600Y-81898800D02*
X157992600Y-83358800D01*
X157992600Y-83358800D02*
X155032600Y-83358800D01*
%TO.C,C2*%
X164930000Y-80880000D02*
X163470000Y-80880000D01*
X163470000Y-80880000D02*
X163470000Y-77920000D01*
X163470000Y-77920000D02*
X164930000Y-77920000D01*
X164930000Y-77920000D02*
X164930000Y-80880000D01*
%TO.C,C1*%
X161500000Y-81620000D02*
X161500000Y-83580000D01*
X161500000Y-83580000D02*
X158100000Y-83580000D01*
X158100000Y-83580000D02*
X158100000Y-81620000D01*
X158100000Y-81620000D02*
X161500000Y-81620000D01*
%TD*%
M02*
