%TF.GenerationSoftware,KiCad,Pcbnew,(5.1.8-0-10_14)*%
%TF.CreationDate,2021-01-24T15:40:33+09:00*%
%TF.ProjectId,Micromouse,4d696372-6f6d-46f7-9573-652e6b696361,rev?*%
%TF.SameCoordinates,Original*%
%TF.FileFunction,Soldermask,Bot*%
%TF.FilePolarity,Negative*%
%FSLAX46Y46*%
G04 Gerber Fmt 4.6, Leading zero omitted, Abs format (unit mm)*
G04 Created by KiCad (PCBNEW (5.1.8-0-10_14)) date 2021-01-24 15:40:33*
%MOMM*%
%LPD*%
G01*
G04 APERTURE LIST*
%ADD10O,1.750000X1.200000*%
%ADD11O,2.032000X1.727200*%
%ADD12C,0.100000*%
%ADD13C,1.524000*%
%ADD14C,1.800000*%
%ADD15R,1.800000X1.800000*%
%ADD16C,1.700000*%
%ADD17R,1.524000X1.524000*%
%ADD18R,1.400000X1.400000*%
%ADD19C,1.400000*%
%ADD20O,1.700000X1.700000*%
%ADD21R,1.700000X1.700000*%
G04 APERTURE END LIST*
%TO.C,CN2*%
G36*
G01*
X166274999Y-87350000D02*
X167525001Y-87350000D01*
G75*
G02*
X167775000Y-87599999I0J-249999D01*
G01*
X167775000Y-88300001D01*
G75*
G02*
X167525001Y-88550000I-249999J0D01*
G01*
X166274999Y-88550000D01*
G75*
G02*
X166025000Y-88300001I0J249999D01*
G01*
X166025000Y-87599999D01*
G75*
G02*
X166274999Y-87350000I249999J0D01*
G01*
G37*
D10*
X166900000Y-89950000D03*
%TD*%
%TO.C,CN1*%
X166900000Y-97100000D03*
G36*
G01*
X166274999Y-94500000D02*
X167525001Y-94500000D01*
G75*
G02*
X167775000Y-94749999I0J-249999D01*
G01*
X167775000Y-95450001D01*
G75*
G02*
X167525001Y-95700000I-249999J0D01*
G01*
X166274999Y-95700000D01*
G75*
G02*
X166025000Y-95450001I0J249999D01*
G01*
X166025000Y-94749999D01*
G75*
G02*
X166274999Y-94500000I249999J0D01*
G01*
G37*
%TD*%
D11*
%TO.C,U7*%
X139520000Y-59990000D03*
X139520000Y-62530000D03*
X139520000Y-65070000D03*
X139520000Y-67610000D03*
X149680000Y-59990000D03*
X149680000Y-62530000D03*
X149680000Y-65070000D03*
X149680000Y-67610000D03*
%TD*%
D12*
%TO.C,Q7*%
G36*
X128118585Y-54113292D02*
G01*
X129590656Y-54507733D01*
X129196215Y-55979804D01*
X127724144Y-55585363D01*
X128118585Y-54113292D01*
G37*
D13*
X128000000Y-57500000D03*
%TD*%
D12*
%TO.C,D8*%
G36*
X130221004Y-54544278D02*
G01*
X131959670Y-55010152D01*
X131493796Y-56748818D01*
X129755130Y-56282944D01*
X130221004Y-54544278D01*
G37*
D14*
X130200000Y-58100000D03*
%TD*%
D15*
%TO.C,D9*%
X110240000Y-85700000D03*
D14*
X107700000Y-85700000D03*
%TD*%
D16*
%TO.C,J7*%
X116380000Y-136460000D03*
X113840000Y-136460000D03*
X111300000Y-136460000D03*
X116380000Y-139000000D03*
X113840000Y-139000000D03*
G36*
G01*
X111900000Y-139850000D02*
X110700000Y-139850000D01*
G75*
G02*
X110450000Y-139600000I0J250000D01*
G01*
X110450000Y-138400000D01*
G75*
G02*
X110700000Y-138150000I250000J0D01*
G01*
X111900000Y-138150000D01*
G75*
G02*
X112150000Y-138400000I0J-250000D01*
G01*
X112150000Y-139600000D01*
G75*
G02*
X111900000Y-139850000I-250000J0D01*
G01*
G37*
%TD*%
%TO.C,J8*%
X178080000Y-136460000D03*
X175540000Y-136460000D03*
X173000000Y-136460000D03*
X178080000Y-139000000D03*
X175540000Y-139000000D03*
G36*
G01*
X173600000Y-139850000D02*
X172400000Y-139850000D01*
G75*
G02*
X172150000Y-139600000I0J250000D01*
G01*
X172150000Y-138400000D01*
G75*
G02*
X172400000Y-138150000I250000J0D01*
G01*
X173600000Y-138150000D01*
G75*
G02*
X173850000Y-138400000I0J-250000D01*
G01*
X173850000Y-139600000D01*
G75*
G02*
X173600000Y-139850000I-250000J0D01*
G01*
G37*
%TD*%
D13*
%TO.C,Q5*%
X160742600Y-55046548D03*
D12*
G36*
X162333256Y-58038815D02*
G01*
X160861185Y-58433256D01*
X160466744Y-56961185D01*
X161938815Y-56566744D01*
X162333256Y-58038815D01*
G37*
%TD*%
D13*
%TO.C,Q3*%
X179160000Y-83300000D03*
D17*
X181700000Y-83300000D03*
%TD*%
D14*
%TO.C,D7*%
X158542600Y-55646548D03*
D12*
G36*
X160302270Y-58736396D02*
G01*
X158563604Y-59202270D01*
X158097730Y-57463604D01*
X159836396Y-56997730D01*
X160302270Y-58736396D01*
G37*
%TD*%
D14*
%TO.C,D6*%
X179160000Y-85700000D03*
D15*
X181700000Y-85700000D03*
%TD*%
D13*
%TO.C,Q9*%
X107700000Y-83300000D03*
D17*
X110240000Y-83300000D03*
%TD*%
D18*
%TO.C,ON*%
X175600000Y-91700000D03*
D19*
X178100000Y-91700000D03*
X180600000Y-91700000D03*
X175600000Y-95000000D03*
X178100000Y-95000000D03*
X180600000Y-95000000D03*
%TD*%
D20*
%TO.C,J6*%
X115320000Y-95200000D03*
X112780000Y-95200000D03*
X110240000Y-95200000D03*
D21*
X107700000Y-95200000D03*
%TD*%
D20*
%TO.C,J1*%
X130780000Y-137425000D03*
X128240000Y-137425000D03*
D21*
X125700000Y-137425000D03*
%TD*%
M02*
