M48
; DRILL file {KiCad (5.1.8-0-10_14)} date Sunday, January 24, 2021 at 03:42:09 PM
; FORMAT={-:-/ absolute / metric / decimal}
; #@! TF.CreationDate,2021-01-24T15:42:09+09:00
; #@! TF.GenerationSoftware,Kicad,Pcbnew,(5.1.8-0-10_14)
FMAT,2
METRIC
T1C0.300
T2C0.400
T3C0.750
T4C0.762
T5C0.800
T6C0.900
T7C1.000
T8C1.016
%
G90
G05
T1
X106.2Y-132.4
X106.3Y-142.183
X106.346Y-81.183
X106.346Y-88.183
X106.346Y-96.683
X106.346Y-122.8
X107.6Y-72.183
X111.017Y-81.533
X111.846Y-61.683
X113.053Y-81.537
X113.1Y-122.8
X113.4Y-142.2
X113.612Y-93.017
X113.846Y-96.683
X114.7Y-87.9
X114.768Y-93.005
X115.123Y-78.9
X116.505Y-91.775
X117.524Y-78.844
X117.968Y-92.405
X117.982Y-94.303
X118.124Y-81.524
X120.051Y-82.149
X120.1Y-52.183
X120.3Y-104.6
X120.3Y-122.8
X120.346Y-96.7
X120.4Y-113.2
X120.5Y-142.1
X120.826Y-92.243
X120.898Y-89.766
X121.05Y-66.1
X121.1Y-131.2
X121.2Y-70.4
X121.9Y-131.207
X121.9Y-78.8
X122.25Y-66.1
X122.7Y-131.205
X122.7Y-68.7
X122.8Y-77.7
X123.213Y-66.335
X123.976Y-122.481
X123.986Y-123.32
X124.2Y-70.4
X125.7Y-75.1
X125.7Y-77.7
X126.1Y-68.7
X126.1Y-113.998
X127.4Y-70.4
X127.6Y-63.5
X127.6Y-64.55
X127.6Y-65.65
X127.6Y-66.7
X128.058Y-85.421
X128.058Y-92.687
X128.058Y-93.514
X128.064Y-84.621
X128.24Y-137.425
X128.4Y-142.1
X129.4Y-75.0
X129.403Y-83.018
X130.1Y-46.183
X130.2Y-62.5
X130.778Y-82.263
X130.78Y-83.469
X130.85Y-61.7
X131.3Y-78.9
X132.235Y-82.863
X133.1Y-75.0
X133.1Y-77.5
X133.181Y-80.1
X133.221Y-83.475
X133.221Y-122.481
X133.55Y-63.35
X133.931Y-81.916
X133.932Y-123.116
X133.957Y-67.757
X133.957Y-75.236
X134.532Y-92.687
X134.532Y-93.487
X134.831Y-77.981
X134.831Y-78.781
X136.081Y-64.811
X136.081Y-81.257
X136.1Y-142.1
X136.142Y-83.569
X136.193Y-77.955
X136.197Y-82.049
X136.202Y-78.755
X136.202Y-80.444
X136.202Y-84.458
X136.202Y-85.321
X136.202Y-86.65
X136.345Y-72.24
X137.0Y-74.831
X137.452Y-78.762
X137.452Y-84.458
X137.452Y-85.321
X137.452Y-86.553
X137.482Y-80.45
X137.539Y-83.575
X137.55Y-82.775
X137.781Y-74.931
X137.85Y-72.24
X138.402Y-71.262
X138.6Y-74.831
X139.368Y-72.24
X140.231Y-76.533
X140.346Y-125.683
X140.346Y-126.433
X140.346Y-127.183
X140.396Y-77.6
X140.397Y-79.95
X140.434Y-83.95
X140.754Y-82.716
X140.999Y-79.35
X141.069Y-81.981
X141.096Y-126.433
X141.096Y-127.183
X141.105Y-86.48
X141.196Y-92.087
X141.269Y-80.905
X141.3Y-100.3
X141.45Y-70.75
X141.463Y-71.986
X141.679Y-112.702
X141.679Y-125.479
X141.721Y-77.907
X141.753Y-85.28
X141.846Y-81.683
X141.846Y-127.183
X141.906Y-86.48
X141.996Y-92.083
X142.0Y-100.9
X142.316Y-125.963
X142.346Y-43.45
X142.486Y-112.744
X142.596Y-127.183
X142.64Y-85.274
X142.7Y-78.3
X142.708Y-86.48
X142.796Y-92.087
X142.805Y-106.149
X142.974Y-125.504
X143.166Y-75.246
X143.2Y-70.75
X143.294Y-112.753
X143.346Y-126.433
X143.346Y-127.183
X143.482Y-85.28
X143.579Y-86.591
X143.635Y-120.246
X143.7Y-142.1
X143.762Y-113.985
X143.787Y-108.283
X143.965Y-75.288
X144.094Y-112.753
X144.096Y-126.433
X144.096Y-127.183
X144.27Y-125.504
X144.406Y-107.572
X144.846Y-81.683
X144.846Y-84.683
X144.846Y-126.433
X144.846Y-127.183
X144.85Y-75.199
X144.85Y-106.886
X144.968Y-71.986
X145.05Y-70.75
X145.452Y-72.47
X145.565Y-125.504
X145.596Y-127.183
X145.6Y-59.95
X145.616Y-74.416
X145.681Y-65.052
X145.681Y-68.8
X145.681Y-71.427
X146.05Y-75.199
X146.2Y-114.074
X146.214Y-125.971
X146.327Y-112.829
X146.346Y-127.183
X146.35Y-78.308
X146.845Y-78.936
X146.85Y-43.45
X146.863Y-125.503
X147.096Y-126.433
X147.096Y-127.183
X147.292Y-112.829
X147.464Y-108.283
X147.481Y-65.052
X147.481Y-70.6
X147.483Y-68.8
X147.508Y-92.887
X147.508Y-101.73
X147.511Y-85.342
X147.55Y-78.557
X147.846Y-81.683
X147.846Y-125.683
X147.846Y-126.433
X147.846Y-127.183
X147.917Y-74.59
X147.953Y-77.866
X148.064Y-107.572
X148.308Y-92.887
X148.308Y-101.73
X148.596Y-126.433
X148.596Y-127.183
X148.664Y-106.886
X149.07Y-83.657
X149.2Y-87.1
X149.21Y-85.451
X149.3Y-142.1
X149.761Y-74.996
X149.9Y-86.7
X150.0Y-106.149
X150.1Y-90.2
X150.1Y-93.2
X150.366Y-77.79
X150.899Y-134.991
X151.6Y-90.2
X151.687Y-79.88
X151.687Y-86.337
X151.699Y-63.922
X151.699Y-68.8
X151.85Y-53.95
X151.978Y-114.189
X152.064Y-72.139
X152.265Y-78.357
X152.273Y-91.787
X152.316Y-77.559
X152.55Y-79.88
X152.665Y-68.8
X152.665Y-74.27
X152.665Y-75.49
X152.804Y-94.034
X152.804Y-115.014
X152.804Y-134.991
X152.862Y-76.959
X152.886Y-91.146
X153.35Y-63.7
X153.35Y-65.95
X153.35Y-79.88
X153.404Y-94.741
X153.464Y-74.273
X153.465Y-75.49
X153.486Y-90.575
X153.706Y-60.074
X153.731Y-115.941
X153.731Y-135.004
X154.004Y-95.341
X154.15Y-79.88
X154.264Y-74.27
X154.265Y-75.49
X154.265Y-70.6
X154.35Y-68.7
X154.6Y-66.45
X154.709Y-116.919
X155.064Y-74.272
X155.065Y-75.49
X155.065Y-71.402
X155.35Y-76.5
X155.37Y-68.8
X155.671Y-70.644
X156.35Y-58.95
X156.35Y-61.45
X156.5Y-129.4
X156.601Y-134.165
X156.69Y-79.428
X156.943Y-62.601
X157.148Y-76.584
X157.3Y-84.3
X157.3Y-86.1
X157.376Y-57.4
X157.376Y-58.8
X157.7Y-134.7
X157.8Y-141.6
X157.9Y-124.7
X158.15Y-85.2
X158.343Y-62.599
X158.95Y-84.3
X158.95Y-86.1
X159.23Y-79.835
X159.35Y-46.2
X160.0Y-119.5
X160.2Y-141.8
X160.772Y-133.188
X160.805Y-77.193
X161.7Y-63.75
X161.7Y-65.05
X161.7Y-66.3
X161.7Y-67.55
X162.2Y-141.8
X162.3Y-134.7
X162.5Y-75.8
X162.95Y-72.3
X163.104Y-80.165
X164.12Y-72.634
X164.8Y-141.8
X164.9Y-74.2
X164.9Y-124.7
X165.2Y-99.3
X165.4Y-72.5
X165.476Y-133.205
X165.646Y-116.42
X165.646Y-118.02
X166.2Y-69.5
X166.3Y-78.6
X166.446Y-116.42
X166.452Y-118.02
X166.9Y-142.1
X167.4Y-74.2
X167.695Y-80.905
X168.9Y-80.0
X168.9Y-81.9
X169.0Y-106.2
X169.0Y-115.1
X169.1Y-99.2
X169.1Y-122.7
X169.35Y-52.2
X169.4Y-129.5
X170.5Y-74.2
X171.4Y-72.6
X172.9Y-134.7
X173.0Y-127.7
X173.4Y-80.0
X173.4Y-82.0
X173.5Y-91.0
X173.5Y-93.8
X173.6Y-96.7
X173.81Y-87.7
X174.6Y-78.2
X174.695Y-80.905
X174.7Y-81.8
X174.7Y-129.1
X174.7Y-134.7
X175.5Y-142.1
X176.0Y-122.7
X176.325Y-81.486
X177.35Y-61.7
X178.1Y-96.7
X178.3Y-82.1
X181.85Y-72.2
X183.1Y-81.7
X183.1Y-89.2
X183.1Y-96.7
X183.1Y-122.7
X183.1Y-142.183
X183.2Y-132.7
T2
X113.066Y-84.47
X115.111Y-70.97
X118.9Y-84.7
X121.016Y-65.065
X121.6Y-82.4
X122.4Y-88.3
X122.4Y-92.1
X124.004Y-121.582
X124.4Y-86.4
X124.6Y-94.6
X125.1Y-121.5
X125.1Y-124.2
X126.9Y-82.4
X128.5Y-114.9
X128.611Y-67.605
X129.2Y-86.5
X129.3Y-94.6
X129.3Y-117.2
X129.3Y-121.5
X129.3Y-124.2
X129.5Y-113.0
X132.09Y-59.275
X132.243Y-66.297
X134.731Y-63.388
X135.456Y-60.709
X146.581Y-67.49
X146.581Y-68.303
X146.581Y-72.545
X146.581Y-73.37
X149.0Y-121.3
X149.3Y-113.9
X152.6Y-121.3
X155.45Y-118.65
X159.332Y-73.37
X162.45Y-118.65
X162.824Y-73.37
X166.9Y-68.8
X167.6Y-68.0
X170.3Y-85.75
X174.978Y-88.23
X175.512Y-80.18
X177.531Y-85.702
T3
X166.9Y-87.95
X166.9Y-89.95
X166.9Y-95.1
X166.9Y-97.1
T4
X107.7Y-83.3
X110.24Y-83.3
X179.16Y-83.3
X181.7Y-83.3
X160.743Y-55.047
X161.4Y-57.5
X128.0Y-57.5
X128.657Y-55.047
T5
X135.1Y-132.7
X135.1Y-134.1
X140.028Y-132.692
X143.246Y-133.983
X146.046Y-133.983
X148.283Y-132.819
X151.946Y-130.483
X152.609Y-131.883
T6
X130.2Y-58.1
X130.857Y-55.647
X175.6Y-91.7
X175.6Y-95.0
X178.1Y-91.7
X178.1Y-95.0
X180.6Y-91.7
X107.7Y-85.7
X110.24Y-85.7
X179.16Y-85.7
X181.7Y-85.7
X158.543Y-55.647
X159.2Y-58.1
X180.6Y-95.0
T7
X111.3Y-136.46
X111.3Y-139.0
X113.84Y-136.46
X113.84Y-139.0
X116.38Y-136.46
X116.38Y-139.0
X107.7Y-95.2
X110.24Y-95.2
X112.78Y-95.2
X115.32Y-95.2
X173.0Y-136.46
X173.0Y-139.0
X175.54Y-136.46
X175.54Y-139.0
X178.08Y-136.46
X178.08Y-139.0
X125.7Y-137.425
X128.24Y-137.425
X130.78Y-137.425
T8
X139.52Y-59.99
X139.52Y-62.53
X139.52Y-65.07
X139.52Y-67.61
X149.68Y-59.99
X149.68Y-62.53
X149.68Y-65.07
X149.68Y-67.61
T0
M30
