%TF.GenerationSoftware,KiCad,Pcbnew,(5.1.8-0-10_14)*%
%TF.CreationDate,2021-01-24T15:40:33+09:00*%
%TF.ProjectId,Micromouse,4d696372-6f6d-46f7-9573-652e6b696361,rev?*%
%TF.SameCoordinates,Original*%
%TF.FileFunction,Soldermask,Top*%
%TF.FilePolarity,Negative*%
%FSLAX46Y46*%
G04 Gerber Fmt 4.6, Leading zero omitted, Abs format (unit mm)*
G04 Created by KiCad (PCBNEW (5.1.8-0-10_14)) date 2021-01-24 15:40:33*
%MOMM*%
%LPD*%
G01*
G04 APERTURE LIST*
%ADD10R,0.650000X1.220000*%
%ADD11C,1.000000*%
%ADD12O,1.750000X1.200000*%
%ADD13O,2.032000X1.727200*%
%ADD14C,0.100000*%
%ADD15C,1.524000*%
%ADD16C,1.800000*%
%ADD17R,1.800000X1.800000*%
%ADD18R,0.900000X0.800000*%
%ADD19R,0.450000X1.750000*%
%ADD20C,1.700000*%
%ADD21R,0.650000X1.050000*%
%ADD22R,1.524000X1.524000*%
%ADD23R,1.200000X2.200000*%
%ADD24R,5.800000X6.400000*%
%ADD25R,1.050000X0.650000*%
%ADD26R,1.400000X1.400000*%
%ADD27C,1.400000*%
%ADD28R,2.100000X1.700000*%
%ADD29O,1.700000X1.700000*%
%ADD30R,1.700000X1.700000*%
G04 APERTURE END LIST*
D10*
%TO.C,U4*%
X158382000Y-73343200D03*
X160282000Y-73343200D03*
X160282000Y-75963200D03*
X159332000Y-75963200D03*
X158382000Y-75963200D03*
%TD*%
D11*
%TO.C,TP1*%
X119454000Y-87226200D03*
%TD*%
%TO.C,CN2*%
G36*
G01*
X166274999Y-87350000D02*
X167525001Y-87350000D01*
G75*
G02*
X167775000Y-87599999I0J-249999D01*
G01*
X167775000Y-88300001D01*
G75*
G02*
X167525001Y-88550000I-249999J0D01*
G01*
X166274999Y-88550000D01*
G75*
G02*
X166025000Y-88300001I0J249999D01*
G01*
X166025000Y-87599999D01*
G75*
G02*
X166274999Y-87350000I249999J0D01*
G01*
G37*
D12*
X166900000Y-89950000D03*
%TD*%
%TO.C,U3*%
G36*
G01*
X149675000Y-78300000D02*
X151075000Y-78300000D01*
G75*
G02*
X151150000Y-78375000I0J-75000D01*
G01*
X151150000Y-78525000D01*
G75*
G02*
X151075000Y-78600000I-75000J0D01*
G01*
X149675000Y-78600000D01*
G75*
G02*
X149600000Y-78525000I0J75000D01*
G01*
X149600000Y-78375000D01*
G75*
G02*
X149675000Y-78300000I75000J0D01*
G01*
G37*
G36*
G01*
X149675000Y-78800000D02*
X151075000Y-78800000D01*
G75*
G02*
X151150000Y-78875000I0J-75000D01*
G01*
X151150000Y-79025000D01*
G75*
G02*
X151075000Y-79100000I-75000J0D01*
G01*
X149675000Y-79100000D01*
G75*
G02*
X149600000Y-79025000I0J75000D01*
G01*
X149600000Y-78875000D01*
G75*
G02*
X149675000Y-78800000I75000J0D01*
G01*
G37*
G36*
G01*
X149675000Y-79300000D02*
X151075000Y-79300000D01*
G75*
G02*
X151150000Y-79375000I0J-75000D01*
G01*
X151150000Y-79525000D01*
G75*
G02*
X151075000Y-79600000I-75000J0D01*
G01*
X149675000Y-79600000D01*
G75*
G02*
X149600000Y-79525000I0J75000D01*
G01*
X149600000Y-79375000D01*
G75*
G02*
X149675000Y-79300000I75000J0D01*
G01*
G37*
G36*
G01*
X149675000Y-79800000D02*
X151075000Y-79800000D01*
G75*
G02*
X151150000Y-79875000I0J-75000D01*
G01*
X151150000Y-80025000D01*
G75*
G02*
X151075000Y-80100000I-75000J0D01*
G01*
X149675000Y-80100000D01*
G75*
G02*
X149600000Y-80025000I0J75000D01*
G01*
X149600000Y-79875000D01*
G75*
G02*
X149675000Y-79800000I75000J0D01*
G01*
G37*
G36*
G01*
X149675000Y-80300000D02*
X151075000Y-80300000D01*
G75*
G02*
X151150000Y-80375000I0J-75000D01*
G01*
X151150000Y-80525000D01*
G75*
G02*
X151075000Y-80600000I-75000J0D01*
G01*
X149675000Y-80600000D01*
G75*
G02*
X149600000Y-80525000I0J75000D01*
G01*
X149600000Y-80375000D01*
G75*
G02*
X149675000Y-80300000I75000J0D01*
G01*
G37*
G36*
G01*
X149675000Y-80800000D02*
X151075000Y-80800000D01*
G75*
G02*
X151150000Y-80875000I0J-75000D01*
G01*
X151150000Y-81025000D01*
G75*
G02*
X151075000Y-81100000I-75000J0D01*
G01*
X149675000Y-81100000D01*
G75*
G02*
X149600000Y-81025000I0J75000D01*
G01*
X149600000Y-80875000D01*
G75*
G02*
X149675000Y-80800000I75000J0D01*
G01*
G37*
G36*
G01*
X149675000Y-81300000D02*
X151075000Y-81300000D01*
G75*
G02*
X151150000Y-81375000I0J-75000D01*
G01*
X151150000Y-81525000D01*
G75*
G02*
X151075000Y-81600000I-75000J0D01*
G01*
X149675000Y-81600000D01*
G75*
G02*
X149600000Y-81525000I0J75000D01*
G01*
X149600000Y-81375000D01*
G75*
G02*
X149675000Y-81300000I75000J0D01*
G01*
G37*
G36*
G01*
X149675000Y-81800000D02*
X151075000Y-81800000D01*
G75*
G02*
X151150000Y-81875000I0J-75000D01*
G01*
X151150000Y-82025000D01*
G75*
G02*
X151075000Y-82100000I-75000J0D01*
G01*
X149675000Y-82100000D01*
G75*
G02*
X149600000Y-82025000I0J75000D01*
G01*
X149600000Y-81875000D01*
G75*
G02*
X149675000Y-81800000I75000J0D01*
G01*
G37*
G36*
G01*
X149675000Y-82300000D02*
X151075000Y-82300000D01*
G75*
G02*
X151150000Y-82375000I0J-75000D01*
G01*
X151150000Y-82525000D01*
G75*
G02*
X151075000Y-82600000I-75000J0D01*
G01*
X149675000Y-82600000D01*
G75*
G02*
X149600000Y-82525000I0J75000D01*
G01*
X149600000Y-82375000D01*
G75*
G02*
X149675000Y-82300000I75000J0D01*
G01*
G37*
G36*
G01*
X149675000Y-82800000D02*
X151075000Y-82800000D01*
G75*
G02*
X151150000Y-82875000I0J-75000D01*
G01*
X151150000Y-83025000D01*
G75*
G02*
X151075000Y-83100000I-75000J0D01*
G01*
X149675000Y-83100000D01*
G75*
G02*
X149600000Y-83025000I0J75000D01*
G01*
X149600000Y-82875000D01*
G75*
G02*
X149675000Y-82800000I75000J0D01*
G01*
G37*
G36*
G01*
X149675000Y-83300000D02*
X151075000Y-83300000D01*
G75*
G02*
X151150000Y-83375000I0J-75000D01*
G01*
X151150000Y-83525000D01*
G75*
G02*
X151075000Y-83600000I-75000J0D01*
G01*
X149675000Y-83600000D01*
G75*
G02*
X149600000Y-83525000I0J75000D01*
G01*
X149600000Y-83375000D01*
G75*
G02*
X149675000Y-83300000I75000J0D01*
G01*
G37*
G36*
G01*
X149675000Y-83800000D02*
X151075000Y-83800000D01*
G75*
G02*
X151150000Y-83875000I0J-75000D01*
G01*
X151150000Y-84025000D01*
G75*
G02*
X151075000Y-84100000I-75000J0D01*
G01*
X149675000Y-84100000D01*
G75*
G02*
X149600000Y-84025000I0J75000D01*
G01*
X149600000Y-83875000D01*
G75*
G02*
X149675000Y-83800000I75000J0D01*
G01*
G37*
G36*
G01*
X149675000Y-84300000D02*
X151075000Y-84300000D01*
G75*
G02*
X151150000Y-84375000I0J-75000D01*
G01*
X151150000Y-84525000D01*
G75*
G02*
X151075000Y-84600000I-75000J0D01*
G01*
X149675000Y-84600000D01*
G75*
G02*
X149600000Y-84525000I0J75000D01*
G01*
X149600000Y-84375000D01*
G75*
G02*
X149675000Y-84300000I75000J0D01*
G01*
G37*
G36*
G01*
X149675000Y-84800000D02*
X151075000Y-84800000D01*
G75*
G02*
X151150000Y-84875000I0J-75000D01*
G01*
X151150000Y-85025000D01*
G75*
G02*
X151075000Y-85100000I-75000J0D01*
G01*
X149675000Y-85100000D01*
G75*
G02*
X149600000Y-85025000I0J75000D01*
G01*
X149600000Y-84875000D01*
G75*
G02*
X149675000Y-84800000I75000J0D01*
G01*
G37*
G36*
G01*
X149675000Y-85300000D02*
X151075000Y-85300000D01*
G75*
G02*
X151150000Y-85375000I0J-75000D01*
G01*
X151150000Y-85525000D01*
G75*
G02*
X151075000Y-85600000I-75000J0D01*
G01*
X149675000Y-85600000D01*
G75*
G02*
X149600000Y-85525000I0J75000D01*
G01*
X149600000Y-85375000D01*
G75*
G02*
X149675000Y-85300000I75000J0D01*
G01*
G37*
G36*
G01*
X149675000Y-85800000D02*
X151075000Y-85800000D01*
G75*
G02*
X151150000Y-85875000I0J-75000D01*
G01*
X151150000Y-86025000D01*
G75*
G02*
X151075000Y-86100000I-75000J0D01*
G01*
X149675000Y-86100000D01*
G75*
G02*
X149600000Y-86025000I0J75000D01*
G01*
X149600000Y-85875000D01*
G75*
G02*
X149675000Y-85800000I75000J0D01*
G01*
G37*
G36*
G01*
X148375000Y-87100000D02*
X148525000Y-87100000D01*
G75*
G02*
X148600000Y-87175000I0J-75000D01*
G01*
X148600000Y-88575000D01*
G75*
G02*
X148525000Y-88650000I-75000J0D01*
G01*
X148375000Y-88650000D01*
G75*
G02*
X148300000Y-88575000I0J75000D01*
G01*
X148300000Y-87175000D01*
G75*
G02*
X148375000Y-87100000I75000J0D01*
G01*
G37*
G36*
G01*
X147875000Y-87100000D02*
X148025000Y-87100000D01*
G75*
G02*
X148100000Y-87175000I0J-75000D01*
G01*
X148100000Y-88575000D01*
G75*
G02*
X148025000Y-88650000I-75000J0D01*
G01*
X147875000Y-88650000D01*
G75*
G02*
X147800000Y-88575000I0J75000D01*
G01*
X147800000Y-87175000D01*
G75*
G02*
X147875000Y-87100000I75000J0D01*
G01*
G37*
G36*
G01*
X147375000Y-87100000D02*
X147525000Y-87100000D01*
G75*
G02*
X147600000Y-87175000I0J-75000D01*
G01*
X147600000Y-88575000D01*
G75*
G02*
X147525000Y-88650000I-75000J0D01*
G01*
X147375000Y-88650000D01*
G75*
G02*
X147300000Y-88575000I0J75000D01*
G01*
X147300000Y-87175000D01*
G75*
G02*
X147375000Y-87100000I75000J0D01*
G01*
G37*
G36*
G01*
X146875000Y-87100000D02*
X147025000Y-87100000D01*
G75*
G02*
X147100000Y-87175000I0J-75000D01*
G01*
X147100000Y-88575000D01*
G75*
G02*
X147025000Y-88650000I-75000J0D01*
G01*
X146875000Y-88650000D01*
G75*
G02*
X146800000Y-88575000I0J75000D01*
G01*
X146800000Y-87175000D01*
G75*
G02*
X146875000Y-87100000I75000J0D01*
G01*
G37*
G36*
G01*
X146375000Y-87100000D02*
X146525000Y-87100000D01*
G75*
G02*
X146600000Y-87175000I0J-75000D01*
G01*
X146600000Y-88575000D01*
G75*
G02*
X146525000Y-88650000I-75000J0D01*
G01*
X146375000Y-88650000D01*
G75*
G02*
X146300000Y-88575000I0J75000D01*
G01*
X146300000Y-87175000D01*
G75*
G02*
X146375000Y-87100000I75000J0D01*
G01*
G37*
G36*
G01*
X145875000Y-87100000D02*
X146025000Y-87100000D01*
G75*
G02*
X146100000Y-87175000I0J-75000D01*
G01*
X146100000Y-88575000D01*
G75*
G02*
X146025000Y-88650000I-75000J0D01*
G01*
X145875000Y-88650000D01*
G75*
G02*
X145800000Y-88575000I0J75000D01*
G01*
X145800000Y-87175000D01*
G75*
G02*
X145875000Y-87100000I75000J0D01*
G01*
G37*
G36*
G01*
X145375000Y-87100000D02*
X145525000Y-87100000D01*
G75*
G02*
X145600000Y-87175000I0J-75000D01*
G01*
X145600000Y-88575000D01*
G75*
G02*
X145525000Y-88650000I-75000J0D01*
G01*
X145375000Y-88650000D01*
G75*
G02*
X145300000Y-88575000I0J75000D01*
G01*
X145300000Y-87175000D01*
G75*
G02*
X145375000Y-87100000I75000J0D01*
G01*
G37*
G36*
G01*
X144875000Y-87100000D02*
X145025000Y-87100000D01*
G75*
G02*
X145100000Y-87175000I0J-75000D01*
G01*
X145100000Y-88575000D01*
G75*
G02*
X145025000Y-88650000I-75000J0D01*
G01*
X144875000Y-88650000D01*
G75*
G02*
X144800000Y-88575000I0J75000D01*
G01*
X144800000Y-87175000D01*
G75*
G02*
X144875000Y-87100000I75000J0D01*
G01*
G37*
G36*
G01*
X144375000Y-87100000D02*
X144525000Y-87100000D01*
G75*
G02*
X144600000Y-87175000I0J-75000D01*
G01*
X144600000Y-88575000D01*
G75*
G02*
X144525000Y-88650000I-75000J0D01*
G01*
X144375000Y-88650000D01*
G75*
G02*
X144300000Y-88575000I0J75000D01*
G01*
X144300000Y-87175000D01*
G75*
G02*
X144375000Y-87100000I75000J0D01*
G01*
G37*
G36*
G01*
X143875000Y-87100000D02*
X144025000Y-87100000D01*
G75*
G02*
X144100000Y-87175000I0J-75000D01*
G01*
X144100000Y-88575000D01*
G75*
G02*
X144025000Y-88650000I-75000J0D01*
G01*
X143875000Y-88650000D01*
G75*
G02*
X143800000Y-88575000I0J75000D01*
G01*
X143800000Y-87175000D01*
G75*
G02*
X143875000Y-87100000I75000J0D01*
G01*
G37*
G36*
G01*
X143375000Y-87100000D02*
X143525000Y-87100000D01*
G75*
G02*
X143600000Y-87175000I0J-75000D01*
G01*
X143600000Y-88575000D01*
G75*
G02*
X143525000Y-88650000I-75000J0D01*
G01*
X143375000Y-88650000D01*
G75*
G02*
X143300000Y-88575000I0J75000D01*
G01*
X143300000Y-87175000D01*
G75*
G02*
X143375000Y-87100000I75000J0D01*
G01*
G37*
G36*
G01*
X142875000Y-87100000D02*
X143025000Y-87100000D01*
G75*
G02*
X143100000Y-87175000I0J-75000D01*
G01*
X143100000Y-88575000D01*
G75*
G02*
X143025000Y-88650000I-75000J0D01*
G01*
X142875000Y-88650000D01*
G75*
G02*
X142800000Y-88575000I0J75000D01*
G01*
X142800000Y-87175000D01*
G75*
G02*
X142875000Y-87100000I75000J0D01*
G01*
G37*
G36*
G01*
X142375000Y-87100000D02*
X142525000Y-87100000D01*
G75*
G02*
X142600000Y-87175000I0J-75000D01*
G01*
X142600000Y-88575000D01*
G75*
G02*
X142525000Y-88650000I-75000J0D01*
G01*
X142375000Y-88650000D01*
G75*
G02*
X142300000Y-88575000I0J75000D01*
G01*
X142300000Y-87175000D01*
G75*
G02*
X142375000Y-87100000I75000J0D01*
G01*
G37*
G36*
G01*
X141875000Y-87100000D02*
X142025000Y-87100000D01*
G75*
G02*
X142100000Y-87175000I0J-75000D01*
G01*
X142100000Y-88575000D01*
G75*
G02*
X142025000Y-88650000I-75000J0D01*
G01*
X141875000Y-88650000D01*
G75*
G02*
X141800000Y-88575000I0J75000D01*
G01*
X141800000Y-87175000D01*
G75*
G02*
X141875000Y-87100000I75000J0D01*
G01*
G37*
G36*
G01*
X141375000Y-87100000D02*
X141525000Y-87100000D01*
G75*
G02*
X141600000Y-87175000I0J-75000D01*
G01*
X141600000Y-88575000D01*
G75*
G02*
X141525000Y-88650000I-75000J0D01*
G01*
X141375000Y-88650000D01*
G75*
G02*
X141300000Y-88575000I0J75000D01*
G01*
X141300000Y-87175000D01*
G75*
G02*
X141375000Y-87100000I75000J0D01*
G01*
G37*
G36*
G01*
X140875000Y-87100000D02*
X141025000Y-87100000D01*
G75*
G02*
X141100000Y-87175000I0J-75000D01*
G01*
X141100000Y-88575000D01*
G75*
G02*
X141025000Y-88650000I-75000J0D01*
G01*
X140875000Y-88650000D01*
G75*
G02*
X140800000Y-88575000I0J75000D01*
G01*
X140800000Y-87175000D01*
G75*
G02*
X140875000Y-87100000I75000J0D01*
G01*
G37*
G36*
G01*
X138325000Y-85800000D02*
X139725000Y-85800000D01*
G75*
G02*
X139800000Y-85875000I0J-75000D01*
G01*
X139800000Y-86025000D01*
G75*
G02*
X139725000Y-86100000I-75000J0D01*
G01*
X138325000Y-86100000D01*
G75*
G02*
X138250000Y-86025000I0J75000D01*
G01*
X138250000Y-85875000D01*
G75*
G02*
X138325000Y-85800000I75000J0D01*
G01*
G37*
G36*
G01*
X138325000Y-85300000D02*
X139725000Y-85300000D01*
G75*
G02*
X139800000Y-85375000I0J-75000D01*
G01*
X139800000Y-85525000D01*
G75*
G02*
X139725000Y-85600000I-75000J0D01*
G01*
X138325000Y-85600000D01*
G75*
G02*
X138250000Y-85525000I0J75000D01*
G01*
X138250000Y-85375000D01*
G75*
G02*
X138325000Y-85300000I75000J0D01*
G01*
G37*
G36*
G01*
X138325000Y-84800000D02*
X139725000Y-84800000D01*
G75*
G02*
X139800000Y-84875000I0J-75000D01*
G01*
X139800000Y-85025000D01*
G75*
G02*
X139725000Y-85100000I-75000J0D01*
G01*
X138325000Y-85100000D01*
G75*
G02*
X138250000Y-85025000I0J75000D01*
G01*
X138250000Y-84875000D01*
G75*
G02*
X138325000Y-84800000I75000J0D01*
G01*
G37*
G36*
G01*
X138325000Y-84300000D02*
X139725000Y-84300000D01*
G75*
G02*
X139800000Y-84375000I0J-75000D01*
G01*
X139800000Y-84525000D01*
G75*
G02*
X139725000Y-84600000I-75000J0D01*
G01*
X138325000Y-84600000D01*
G75*
G02*
X138250000Y-84525000I0J75000D01*
G01*
X138250000Y-84375000D01*
G75*
G02*
X138325000Y-84300000I75000J0D01*
G01*
G37*
G36*
G01*
X138325000Y-83800000D02*
X139725000Y-83800000D01*
G75*
G02*
X139800000Y-83875000I0J-75000D01*
G01*
X139800000Y-84025000D01*
G75*
G02*
X139725000Y-84100000I-75000J0D01*
G01*
X138325000Y-84100000D01*
G75*
G02*
X138250000Y-84025000I0J75000D01*
G01*
X138250000Y-83875000D01*
G75*
G02*
X138325000Y-83800000I75000J0D01*
G01*
G37*
G36*
G01*
X138325000Y-83300000D02*
X139725000Y-83300000D01*
G75*
G02*
X139800000Y-83375000I0J-75000D01*
G01*
X139800000Y-83525000D01*
G75*
G02*
X139725000Y-83600000I-75000J0D01*
G01*
X138325000Y-83600000D01*
G75*
G02*
X138250000Y-83525000I0J75000D01*
G01*
X138250000Y-83375000D01*
G75*
G02*
X138325000Y-83300000I75000J0D01*
G01*
G37*
G36*
G01*
X138325000Y-82800000D02*
X139725000Y-82800000D01*
G75*
G02*
X139800000Y-82875000I0J-75000D01*
G01*
X139800000Y-83025000D01*
G75*
G02*
X139725000Y-83100000I-75000J0D01*
G01*
X138325000Y-83100000D01*
G75*
G02*
X138250000Y-83025000I0J75000D01*
G01*
X138250000Y-82875000D01*
G75*
G02*
X138325000Y-82800000I75000J0D01*
G01*
G37*
G36*
G01*
X138325000Y-82300000D02*
X139725000Y-82300000D01*
G75*
G02*
X139800000Y-82375000I0J-75000D01*
G01*
X139800000Y-82525000D01*
G75*
G02*
X139725000Y-82600000I-75000J0D01*
G01*
X138325000Y-82600000D01*
G75*
G02*
X138250000Y-82525000I0J75000D01*
G01*
X138250000Y-82375000D01*
G75*
G02*
X138325000Y-82300000I75000J0D01*
G01*
G37*
G36*
G01*
X138325000Y-81800000D02*
X139725000Y-81800000D01*
G75*
G02*
X139800000Y-81875000I0J-75000D01*
G01*
X139800000Y-82025000D01*
G75*
G02*
X139725000Y-82100000I-75000J0D01*
G01*
X138325000Y-82100000D01*
G75*
G02*
X138250000Y-82025000I0J75000D01*
G01*
X138250000Y-81875000D01*
G75*
G02*
X138325000Y-81800000I75000J0D01*
G01*
G37*
G36*
G01*
X138325000Y-81300000D02*
X139725000Y-81300000D01*
G75*
G02*
X139800000Y-81375000I0J-75000D01*
G01*
X139800000Y-81525000D01*
G75*
G02*
X139725000Y-81600000I-75000J0D01*
G01*
X138325000Y-81600000D01*
G75*
G02*
X138250000Y-81525000I0J75000D01*
G01*
X138250000Y-81375000D01*
G75*
G02*
X138325000Y-81300000I75000J0D01*
G01*
G37*
G36*
G01*
X138325000Y-80800000D02*
X139725000Y-80800000D01*
G75*
G02*
X139800000Y-80875000I0J-75000D01*
G01*
X139800000Y-81025000D01*
G75*
G02*
X139725000Y-81100000I-75000J0D01*
G01*
X138325000Y-81100000D01*
G75*
G02*
X138250000Y-81025000I0J75000D01*
G01*
X138250000Y-80875000D01*
G75*
G02*
X138325000Y-80800000I75000J0D01*
G01*
G37*
G36*
G01*
X138325000Y-80300000D02*
X139725000Y-80300000D01*
G75*
G02*
X139800000Y-80375000I0J-75000D01*
G01*
X139800000Y-80525000D01*
G75*
G02*
X139725000Y-80600000I-75000J0D01*
G01*
X138325000Y-80600000D01*
G75*
G02*
X138250000Y-80525000I0J75000D01*
G01*
X138250000Y-80375000D01*
G75*
G02*
X138325000Y-80300000I75000J0D01*
G01*
G37*
G36*
G01*
X138325000Y-79800000D02*
X139725000Y-79800000D01*
G75*
G02*
X139800000Y-79875000I0J-75000D01*
G01*
X139800000Y-80025000D01*
G75*
G02*
X139725000Y-80100000I-75000J0D01*
G01*
X138325000Y-80100000D01*
G75*
G02*
X138250000Y-80025000I0J75000D01*
G01*
X138250000Y-79875000D01*
G75*
G02*
X138325000Y-79800000I75000J0D01*
G01*
G37*
G36*
G01*
X138325000Y-79300000D02*
X139725000Y-79300000D01*
G75*
G02*
X139800000Y-79375000I0J-75000D01*
G01*
X139800000Y-79525000D01*
G75*
G02*
X139725000Y-79600000I-75000J0D01*
G01*
X138325000Y-79600000D01*
G75*
G02*
X138250000Y-79525000I0J75000D01*
G01*
X138250000Y-79375000D01*
G75*
G02*
X138325000Y-79300000I75000J0D01*
G01*
G37*
G36*
G01*
X138325000Y-78800000D02*
X139725000Y-78800000D01*
G75*
G02*
X139800000Y-78875000I0J-75000D01*
G01*
X139800000Y-79025000D01*
G75*
G02*
X139725000Y-79100000I-75000J0D01*
G01*
X138325000Y-79100000D01*
G75*
G02*
X138250000Y-79025000I0J75000D01*
G01*
X138250000Y-78875000D01*
G75*
G02*
X138325000Y-78800000I75000J0D01*
G01*
G37*
G36*
G01*
X138325000Y-78300000D02*
X139725000Y-78300000D01*
G75*
G02*
X139800000Y-78375000I0J-75000D01*
G01*
X139800000Y-78525000D01*
G75*
G02*
X139725000Y-78600000I-75000J0D01*
G01*
X138325000Y-78600000D01*
G75*
G02*
X138250000Y-78525000I0J75000D01*
G01*
X138250000Y-78375000D01*
G75*
G02*
X138325000Y-78300000I75000J0D01*
G01*
G37*
G36*
G01*
X140875000Y-75750000D02*
X141025000Y-75750000D01*
G75*
G02*
X141100000Y-75825000I0J-75000D01*
G01*
X141100000Y-77225000D01*
G75*
G02*
X141025000Y-77300000I-75000J0D01*
G01*
X140875000Y-77300000D01*
G75*
G02*
X140800000Y-77225000I0J75000D01*
G01*
X140800000Y-75825000D01*
G75*
G02*
X140875000Y-75750000I75000J0D01*
G01*
G37*
G36*
G01*
X141375000Y-75750000D02*
X141525000Y-75750000D01*
G75*
G02*
X141600000Y-75825000I0J-75000D01*
G01*
X141600000Y-77225000D01*
G75*
G02*
X141525000Y-77300000I-75000J0D01*
G01*
X141375000Y-77300000D01*
G75*
G02*
X141300000Y-77225000I0J75000D01*
G01*
X141300000Y-75825000D01*
G75*
G02*
X141375000Y-75750000I75000J0D01*
G01*
G37*
G36*
G01*
X141875000Y-75750000D02*
X142025000Y-75750000D01*
G75*
G02*
X142100000Y-75825000I0J-75000D01*
G01*
X142100000Y-77225000D01*
G75*
G02*
X142025000Y-77300000I-75000J0D01*
G01*
X141875000Y-77300000D01*
G75*
G02*
X141800000Y-77225000I0J75000D01*
G01*
X141800000Y-75825000D01*
G75*
G02*
X141875000Y-75750000I75000J0D01*
G01*
G37*
G36*
G01*
X142375000Y-75750000D02*
X142525000Y-75750000D01*
G75*
G02*
X142600000Y-75825000I0J-75000D01*
G01*
X142600000Y-77225000D01*
G75*
G02*
X142525000Y-77300000I-75000J0D01*
G01*
X142375000Y-77300000D01*
G75*
G02*
X142300000Y-77225000I0J75000D01*
G01*
X142300000Y-75825000D01*
G75*
G02*
X142375000Y-75750000I75000J0D01*
G01*
G37*
G36*
G01*
X142875000Y-75750000D02*
X143025000Y-75750000D01*
G75*
G02*
X143100000Y-75825000I0J-75000D01*
G01*
X143100000Y-77225000D01*
G75*
G02*
X143025000Y-77300000I-75000J0D01*
G01*
X142875000Y-77300000D01*
G75*
G02*
X142800000Y-77225000I0J75000D01*
G01*
X142800000Y-75825000D01*
G75*
G02*
X142875000Y-75750000I75000J0D01*
G01*
G37*
G36*
G01*
X143375000Y-75750000D02*
X143525000Y-75750000D01*
G75*
G02*
X143600000Y-75825000I0J-75000D01*
G01*
X143600000Y-77225000D01*
G75*
G02*
X143525000Y-77300000I-75000J0D01*
G01*
X143375000Y-77300000D01*
G75*
G02*
X143300000Y-77225000I0J75000D01*
G01*
X143300000Y-75825000D01*
G75*
G02*
X143375000Y-75750000I75000J0D01*
G01*
G37*
G36*
G01*
X143875000Y-75750000D02*
X144025000Y-75750000D01*
G75*
G02*
X144100000Y-75825000I0J-75000D01*
G01*
X144100000Y-77225000D01*
G75*
G02*
X144025000Y-77300000I-75000J0D01*
G01*
X143875000Y-77300000D01*
G75*
G02*
X143800000Y-77225000I0J75000D01*
G01*
X143800000Y-75825000D01*
G75*
G02*
X143875000Y-75750000I75000J0D01*
G01*
G37*
G36*
G01*
X144375000Y-75750000D02*
X144525000Y-75750000D01*
G75*
G02*
X144600000Y-75825000I0J-75000D01*
G01*
X144600000Y-77225000D01*
G75*
G02*
X144525000Y-77300000I-75000J0D01*
G01*
X144375000Y-77300000D01*
G75*
G02*
X144300000Y-77225000I0J75000D01*
G01*
X144300000Y-75825000D01*
G75*
G02*
X144375000Y-75750000I75000J0D01*
G01*
G37*
G36*
G01*
X144875000Y-75750000D02*
X145025000Y-75750000D01*
G75*
G02*
X145100000Y-75825000I0J-75000D01*
G01*
X145100000Y-77225000D01*
G75*
G02*
X145025000Y-77300000I-75000J0D01*
G01*
X144875000Y-77300000D01*
G75*
G02*
X144800000Y-77225000I0J75000D01*
G01*
X144800000Y-75825000D01*
G75*
G02*
X144875000Y-75750000I75000J0D01*
G01*
G37*
G36*
G01*
X145375000Y-75750000D02*
X145525000Y-75750000D01*
G75*
G02*
X145600000Y-75825000I0J-75000D01*
G01*
X145600000Y-77225000D01*
G75*
G02*
X145525000Y-77300000I-75000J0D01*
G01*
X145375000Y-77300000D01*
G75*
G02*
X145300000Y-77225000I0J75000D01*
G01*
X145300000Y-75825000D01*
G75*
G02*
X145375000Y-75750000I75000J0D01*
G01*
G37*
G36*
G01*
X145875000Y-75750000D02*
X146025000Y-75750000D01*
G75*
G02*
X146100000Y-75825000I0J-75000D01*
G01*
X146100000Y-77225000D01*
G75*
G02*
X146025000Y-77300000I-75000J0D01*
G01*
X145875000Y-77300000D01*
G75*
G02*
X145800000Y-77225000I0J75000D01*
G01*
X145800000Y-75825000D01*
G75*
G02*
X145875000Y-75750000I75000J0D01*
G01*
G37*
G36*
G01*
X146375000Y-75750000D02*
X146525000Y-75750000D01*
G75*
G02*
X146600000Y-75825000I0J-75000D01*
G01*
X146600000Y-77225000D01*
G75*
G02*
X146525000Y-77300000I-75000J0D01*
G01*
X146375000Y-77300000D01*
G75*
G02*
X146300000Y-77225000I0J75000D01*
G01*
X146300000Y-75825000D01*
G75*
G02*
X146375000Y-75750000I75000J0D01*
G01*
G37*
G36*
G01*
X146875000Y-75750000D02*
X147025000Y-75750000D01*
G75*
G02*
X147100000Y-75825000I0J-75000D01*
G01*
X147100000Y-77225000D01*
G75*
G02*
X147025000Y-77300000I-75000J0D01*
G01*
X146875000Y-77300000D01*
G75*
G02*
X146800000Y-77225000I0J75000D01*
G01*
X146800000Y-75825000D01*
G75*
G02*
X146875000Y-75750000I75000J0D01*
G01*
G37*
G36*
G01*
X147375000Y-75750000D02*
X147525000Y-75750000D01*
G75*
G02*
X147600000Y-75825000I0J-75000D01*
G01*
X147600000Y-77225000D01*
G75*
G02*
X147525000Y-77300000I-75000J0D01*
G01*
X147375000Y-77300000D01*
G75*
G02*
X147300000Y-77225000I0J75000D01*
G01*
X147300000Y-75825000D01*
G75*
G02*
X147375000Y-75750000I75000J0D01*
G01*
G37*
G36*
G01*
X147875000Y-75750000D02*
X148025000Y-75750000D01*
G75*
G02*
X148100000Y-75825000I0J-75000D01*
G01*
X148100000Y-77225000D01*
G75*
G02*
X148025000Y-77300000I-75000J0D01*
G01*
X147875000Y-77300000D01*
G75*
G02*
X147800000Y-77225000I0J75000D01*
G01*
X147800000Y-75825000D01*
G75*
G02*
X147875000Y-75750000I75000J0D01*
G01*
G37*
G36*
G01*
X148375000Y-75750000D02*
X148525000Y-75750000D01*
G75*
G02*
X148600000Y-75825000I0J-75000D01*
G01*
X148600000Y-77225000D01*
G75*
G02*
X148525000Y-77300000I-75000J0D01*
G01*
X148375000Y-77300000D01*
G75*
G02*
X148300000Y-77225000I0J75000D01*
G01*
X148300000Y-75825000D01*
G75*
G02*
X148375000Y-75750000I75000J0D01*
G01*
G37*
%TD*%
%TO.C,C10*%
G36*
G01*
X138850000Y-76075000D02*
X138350000Y-76075000D01*
G75*
G02*
X138125000Y-75850000I0J225000D01*
G01*
X138125000Y-75400000D01*
G75*
G02*
X138350000Y-75175000I225000J0D01*
G01*
X138850000Y-75175000D01*
G75*
G02*
X139075000Y-75400000I0J-225000D01*
G01*
X139075000Y-75850000D01*
G75*
G02*
X138850000Y-76075000I-225000J0D01*
G01*
G37*
G36*
G01*
X138850000Y-77625000D02*
X138350000Y-77625000D01*
G75*
G02*
X138125000Y-77400000I0J225000D01*
G01*
X138125000Y-76950000D01*
G75*
G02*
X138350000Y-76725000I225000J0D01*
G01*
X138850000Y-76725000D01*
G75*
G02*
X139075000Y-76950000I0J-225000D01*
G01*
X139075000Y-77400000D01*
G75*
G02*
X138850000Y-77625000I-225000J0D01*
G01*
G37*
%TD*%
%TO.C,C14*%
G36*
G01*
X142216400Y-73886000D02*
X142716400Y-73886000D01*
G75*
G02*
X142941400Y-74111000I0J-225000D01*
G01*
X142941400Y-74561000D01*
G75*
G02*
X142716400Y-74786000I-225000J0D01*
G01*
X142216400Y-74786000D01*
G75*
G02*
X141991400Y-74561000I0J225000D01*
G01*
X141991400Y-74111000D01*
G75*
G02*
X142216400Y-73886000I225000J0D01*
G01*
G37*
G36*
G01*
X142216400Y-72336000D02*
X142716400Y-72336000D01*
G75*
G02*
X142941400Y-72561000I0J-225000D01*
G01*
X142941400Y-73011000D01*
G75*
G02*
X142716400Y-73236000I-225000J0D01*
G01*
X142216400Y-73236000D01*
G75*
G02*
X141991400Y-73011000I0J225000D01*
G01*
X141991400Y-72561000D01*
G75*
G02*
X142216400Y-72336000I225000J0D01*
G01*
G37*
%TD*%
%TO.C,C12*%
G36*
G01*
X150878760Y-88636980D02*
X150878760Y-88136980D01*
G75*
G02*
X151103760Y-87911980I225000J0D01*
G01*
X151553760Y-87911980D01*
G75*
G02*
X151778760Y-88136980I0J-225000D01*
G01*
X151778760Y-88636980D01*
G75*
G02*
X151553760Y-88861980I-225000J0D01*
G01*
X151103760Y-88861980D01*
G75*
G02*
X150878760Y-88636980I0J225000D01*
G01*
G37*
G36*
G01*
X149328760Y-88636980D02*
X149328760Y-88136980D01*
G75*
G02*
X149553760Y-87911980I225000J0D01*
G01*
X150003760Y-87911980D01*
G75*
G02*
X150228760Y-88136980I0J-225000D01*
G01*
X150228760Y-88636980D01*
G75*
G02*
X150003760Y-88861980I-225000J0D01*
G01*
X149553760Y-88861980D01*
G75*
G02*
X149328760Y-88636980I0J225000D01*
G01*
G37*
%TD*%
%TO.C,CN1*%
X166900000Y-97100000D03*
G36*
G01*
X166274999Y-94500000D02*
X167525001Y-94500000D01*
G75*
G02*
X167775000Y-94749999I0J-249999D01*
G01*
X167775000Y-95450001D01*
G75*
G02*
X167525001Y-95700000I-249999J0D01*
G01*
X166274999Y-95700000D01*
G75*
G02*
X166025000Y-95450001I0J249999D01*
G01*
X166025000Y-94749999D01*
G75*
G02*
X166274999Y-94500000I249999J0D01*
G01*
G37*
%TD*%
%TO.C,R1*%
G36*
G01*
X173825000Y-89675000D02*
X173825000Y-89125000D01*
G75*
G02*
X174025000Y-88925000I200000J0D01*
G01*
X174425000Y-88925000D01*
G75*
G02*
X174625000Y-89125000I0J-200000D01*
G01*
X174625000Y-89675000D01*
G75*
G02*
X174425000Y-89875000I-200000J0D01*
G01*
X174025000Y-89875000D01*
G75*
G02*
X173825000Y-89675000I0J200000D01*
G01*
G37*
G36*
G01*
X172175000Y-89675000D02*
X172175000Y-89125000D01*
G75*
G02*
X172375000Y-88925000I200000J0D01*
G01*
X172775000Y-88925000D01*
G75*
G02*
X172975000Y-89125000I0J-200000D01*
G01*
X172975000Y-89675000D01*
G75*
G02*
X172775000Y-89875000I-200000J0D01*
G01*
X172375000Y-89875000D01*
G75*
G02*
X172175000Y-89675000I0J200000D01*
G01*
G37*
%TD*%
D13*
%TO.C,U7*%
X139520000Y-59990000D03*
X139520000Y-62530000D03*
X139520000Y-65070000D03*
X139520000Y-67610000D03*
X149680000Y-59990000D03*
X149680000Y-62530000D03*
X149680000Y-65070000D03*
X149680000Y-67610000D03*
%TD*%
D14*
%TO.C,Q7*%
G36*
X128118585Y-54113292D02*
G01*
X129590656Y-54507733D01*
X129196215Y-55979804D01*
X127724144Y-55585363D01*
X128118585Y-54113292D01*
G37*
D15*
X128000000Y-57500000D03*
%TD*%
D14*
%TO.C,D8*%
G36*
X130221004Y-54544278D02*
G01*
X131959670Y-55010152D01*
X131493796Y-56748818D01*
X129755130Y-56282944D01*
X130221004Y-54544278D01*
G37*
D16*
X130200000Y-58100000D03*
%TD*%
D17*
%TO.C,D9*%
X110240000Y-85700000D03*
D16*
X107700000Y-85700000D03*
%TD*%
D18*
%TO.C,Q1*%
X168300000Y-83550000D03*
X170300000Y-82600000D03*
X170300000Y-84500000D03*
%TD*%
D19*
%TO.C,U2*%
X141025000Y-124100000D03*
X141675000Y-124100000D03*
X142325000Y-124100000D03*
X142975000Y-124100000D03*
X143625000Y-124100000D03*
X144275000Y-124100000D03*
X144925000Y-124100000D03*
X145575000Y-124100000D03*
X146225000Y-124100000D03*
X146875000Y-124100000D03*
X147525000Y-124100000D03*
X148175000Y-124100000D03*
X148175000Y-131300000D03*
X147525000Y-131300000D03*
X146875000Y-131300000D03*
X146225000Y-131300000D03*
X145575000Y-131300000D03*
X144925000Y-131300000D03*
X144275000Y-131300000D03*
X143625000Y-131300000D03*
X142975000Y-131300000D03*
X142325000Y-131300000D03*
X141675000Y-131300000D03*
X141025000Y-131300000D03*
%TD*%
D20*
%TO.C,J7*%
X116380000Y-136460000D03*
X113840000Y-136460000D03*
X111300000Y-136460000D03*
X116380000Y-139000000D03*
X113840000Y-139000000D03*
G36*
G01*
X111900000Y-139850000D02*
X110700000Y-139850000D01*
G75*
G02*
X110450000Y-139600000I0J250000D01*
G01*
X110450000Y-138400000D01*
G75*
G02*
X110700000Y-138150000I250000J0D01*
G01*
X111900000Y-138150000D01*
G75*
G02*
X112150000Y-138400000I0J-250000D01*
G01*
X112150000Y-139600000D01*
G75*
G02*
X111900000Y-139850000I-250000J0D01*
G01*
G37*
%TD*%
%TO.C,J8*%
X178080000Y-136460000D03*
X175540000Y-136460000D03*
X173000000Y-136460000D03*
X178080000Y-139000000D03*
X175540000Y-139000000D03*
G36*
G01*
X173600000Y-139850000D02*
X172400000Y-139850000D01*
G75*
G02*
X172150000Y-139600000I0J250000D01*
G01*
X172150000Y-138400000D01*
G75*
G02*
X172400000Y-138150000I250000J0D01*
G01*
X173600000Y-138150000D01*
G75*
G02*
X173850000Y-138400000I0J-250000D01*
G01*
X173850000Y-139600000D01*
G75*
G02*
X173600000Y-139850000I-250000J0D01*
G01*
G37*
%TD*%
D21*
%TO.C,SW3*%
X161169000Y-137625000D03*
X161169000Y-141775000D03*
X159019000Y-137625000D03*
X159019000Y-141775000D03*
%TD*%
%TO.C,U5*%
G36*
G01*
X165150000Y-67455000D02*
X165150000Y-67755000D01*
G75*
G02*
X165000000Y-67905000I-150000J0D01*
G01*
X163350000Y-67905000D01*
G75*
G02*
X163200000Y-67755000I0J150000D01*
G01*
X163200000Y-67455000D01*
G75*
G02*
X163350000Y-67305000I150000J0D01*
G01*
X165000000Y-67305000D01*
G75*
G02*
X165150000Y-67455000I0J-150000D01*
G01*
G37*
G36*
G01*
X165150000Y-66185000D02*
X165150000Y-66485000D01*
G75*
G02*
X165000000Y-66635000I-150000J0D01*
G01*
X163350000Y-66635000D01*
G75*
G02*
X163200000Y-66485000I0J150000D01*
G01*
X163200000Y-66185000D01*
G75*
G02*
X163350000Y-66035000I150000J0D01*
G01*
X165000000Y-66035000D01*
G75*
G02*
X165150000Y-66185000I0J-150000D01*
G01*
G37*
G36*
G01*
X165150000Y-64915000D02*
X165150000Y-65215000D01*
G75*
G02*
X165000000Y-65365000I-150000J0D01*
G01*
X163350000Y-65365000D01*
G75*
G02*
X163200000Y-65215000I0J150000D01*
G01*
X163200000Y-64915000D01*
G75*
G02*
X163350000Y-64765000I150000J0D01*
G01*
X165000000Y-64765000D01*
G75*
G02*
X165150000Y-64915000I0J-150000D01*
G01*
G37*
G36*
G01*
X165150000Y-63645000D02*
X165150000Y-63945000D01*
G75*
G02*
X165000000Y-64095000I-150000J0D01*
G01*
X163350000Y-64095000D01*
G75*
G02*
X163200000Y-63945000I0J150000D01*
G01*
X163200000Y-63645000D01*
G75*
G02*
X163350000Y-63495000I150000J0D01*
G01*
X165000000Y-63495000D01*
G75*
G02*
X165150000Y-63645000I0J-150000D01*
G01*
G37*
G36*
G01*
X160200000Y-63645000D02*
X160200000Y-63945000D01*
G75*
G02*
X160050000Y-64095000I-150000J0D01*
G01*
X158400000Y-64095000D01*
G75*
G02*
X158250000Y-63945000I0J150000D01*
G01*
X158250000Y-63645000D01*
G75*
G02*
X158400000Y-63495000I150000J0D01*
G01*
X160050000Y-63495000D01*
G75*
G02*
X160200000Y-63645000I0J-150000D01*
G01*
G37*
G36*
G01*
X160200000Y-64915000D02*
X160200000Y-65215000D01*
G75*
G02*
X160050000Y-65365000I-150000J0D01*
G01*
X158400000Y-65365000D01*
G75*
G02*
X158250000Y-65215000I0J150000D01*
G01*
X158250000Y-64915000D01*
G75*
G02*
X158400000Y-64765000I150000J0D01*
G01*
X160050000Y-64765000D01*
G75*
G02*
X160200000Y-64915000I0J-150000D01*
G01*
G37*
G36*
G01*
X160200000Y-66185000D02*
X160200000Y-66485000D01*
G75*
G02*
X160050000Y-66635000I-150000J0D01*
G01*
X158400000Y-66635000D01*
G75*
G02*
X158250000Y-66485000I0J150000D01*
G01*
X158250000Y-66185000D01*
G75*
G02*
X158400000Y-66035000I150000J0D01*
G01*
X160050000Y-66035000D01*
G75*
G02*
X160200000Y-66185000I0J-150000D01*
G01*
G37*
G36*
G01*
X160200000Y-67455000D02*
X160200000Y-67755000D01*
G75*
G02*
X160050000Y-67905000I-150000J0D01*
G01*
X158400000Y-67905000D01*
G75*
G02*
X158250000Y-67755000I0J150000D01*
G01*
X158250000Y-67455000D01*
G75*
G02*
X158400000Y-67305000I150000J0D01*
G01*
X160050000Y-67305000D01*
G75*
G02*
X160200000Y-67455000I0J-150000D01*
G01*
G37*
%TD*%
%TO.C,U6*%
G36*
G01*
X126200000Y-67455000D02*
X126200000Y-67755000D01*
G75*
G02*
X126050000Y-67905000I-150000J0D01*
G01*
X124400000Y-67905000D01*
G75*
G02*
X124250000Y-67755000I0J150000D01*
G01*
X124250000Y-67455000D01*
G75*
G02*
X124400000Y-67305000I150000J0D01*
G01*
X126050000Y-67305000D01*
G75*
G02*
X126200000Y-67455000I0J-150000D01*
G01*
G37*
G36*
G01*
X126200000Y-66185000D02*
X126200000Y-66485000D01*
G75*
G02*
X126050000Y-66635000I-150000J0D01*
G01*
X124400000Y-66635000D01*
G75*
G02*
X124250000Y-66485000I0J150000D01*
G01*
X124250000Y-66185000D01*
G75*
G02*
X124400000Y-66035000I150000J0D01*
G01*
X126050000Y-66035000D01*
G75*
G02*
X126200000Y-66185000I0J-150000D01*
G01*
G37*
G36*
G01*
X126200000Y-64915000D02*
X126200000Y-65215000D01*
G75*
G02*
X126050000Y-65365000I-150000J0D01*
G01*
X124400000Y-65365000D01*
G75*
G02*
X124250000Y-65215000I0J150000D01*
G01*
X124250000Y-64915000D01*
G75*
G02*
X124400000Y-64765000I150000J0D01*
G01*
X126050000Y-64765000D01*
G75*
G02*
X126200000Y-64915000I0J-150000D01*
G01*
G37*
G36*
G01*
X126200000Y-63645000D02*
X126200000Y-63945000D01*
G75*
G02*
X126050000Y-64095000I-150000J0D01*
G01*
X124400000Y-64095000D01*
G75*
G02*
X124250000Y-63945000I0J150000D01*
G01*
X124250000Y-63645000D01*
G75*
G02*
X124400000Y-63495000I150000J0D01*
G01*
X126050000Y-63495000D01*
G75*
G02*
X126200000Y-63645000I0J-150000D01*
G01*
G37*
G36*
G01*
X131150000Y-63645000D02*
X131150000Y-63945000D01*
G75*
G02*
X131000000Y-64095000I-150000J0D01*
G01*
X129350000Y-64095000D01*
G75*
G02*
X129200000Y-63945000I0J150000D01*
G01*
X129200000Y-63645000D01*
G75*
G02*
X129350000Y-63495000I150000J0D01*
G01*
X131000000Y-63495000D01*
G75*
G02*
X131150000Y-63645000I0J-150000D01*
G01*
G37*
G36*
G01*
X131150000Y-64915000D02*
X131150000Y-65215000D01*
G75*
G02*
X131000000Y-65365000I-150000J0D01*
G01*
X129350000Y-65365000D01*
G75*
G02*
X129200000Y-65215000I0J150000D01*
G01*
X129200000Y-64915000D01*
G75*
G02*
X129350000Y-64765000I150000J0D01*
G01*
X131000000Y-64765000D01*
G75*
G02*
X131150000Y-64915000I0J-150000D01*
G01*
G37*
G36*
G01*
X131150000Y-66185000D02*
X131150000Y-66485000D01*
G75*
G02*
X131000000Y-66635000I-150000J0D01*
G01*
X129350000Y-66635000D01*
G75*
G02*
X129200000Y-66485000I0J150000D01*
G01*
X129200000Y-66185000D01*
G75*
G02*
X129350000Y-66035000I150000J0D01*
G01*
X131000000Y-66035000D01*
G75*
G02*
X131150000Y-66185000I0J-150000D01*
G01*
G37*
G36*
G01*
X131150000Y-67455000D02*
X131150000Y-67755000D01*
G75*
G02*
X131000000Y-67905000I-150000J0D01*
G01*
X129350000Y-67905000D01*
G75*
G02*
X129200000Y-67755000I0J150000D01*
G01*
X129200000Y-67455000D01*
G75*
G02*
X129350000Y-67305000I150000J0D01*
G01*
X131000000Y-67305000D01*
G75*
G02*
X131150000Y-67455000I0J-150000D01*
G01*
G37*
%TD*%
D15*
%TO.C,Q5*%
X160742600Y-55046548D03*
D14*
G36*
X162333256Y-58038815D02*
G01*
X160861185Y-58433256D01*
X160466744Y-56961185D01*
X161938815Y-56566744D01*
X162333256Y-58038815D01*
G37*
%TD*%
D15*
%TO.C,Q3*%
X179160000Y-83300000D03*
D22*
X181700000Y-83300000D03*
%TD*%
D16*
%TO.C,D7*%
X158542600Y-55646548D03*
D14*
G36*
X160302270Y-58736396D02*
G01*
X158563604Y-59202270D01*
X158097730Y-57463604D01*
X159836396Y-56997730D01*
X160302270Y-58736396D01*
G37*
%TD*%
D16*
%TO.C,D6*%
X179160000Y-85700000D03*
D17*
X181700000Y-85700000D03*
%TD*%
D15*
%TO.C,Q9*%
X107700000Y-83300000D03*
D22*
X110240000Y-83300000D03*
%TD*%
D23*
%TO.C,U1*%
X160480000Y-85300000D03*
X155920000Y-85300000D03*
D24*
X158200000Y-91600000D03*
%TD*%
D21*
%TO.C,SW4*%
X165775000Y-137625000D03*
X165775000Y-141775000D03*
X163625000Y-137625000D03*
X163625000Y-141775000D03*
%TD*%
D25*
%TO.C,SW2*%
X111675000Y-91775000D03*
X107525000Y-91775000D03*
X111675000Y-89625000D03*
X107525000Y-89625000D03*
%TD*%
D26*
%TO.C,ON*%
X175600000Y-91700000D03*
D27*
X178100000Y-91700000D03*
X180600000Y-91700000D03*
X175600000Y-95000000D03*
X178100000Y-95000000D03*
X180600000Y-95000000D03*
%TD*%
%TO.C,R26*%
G36*
G01*
X126472840Y-62461880D02*
X126472840Y-61911880D01*
G75*
G02*
X126672840Y-61711880I200000J0D01*
G01*
X127072840Y-61711880D01*
G75*
G02*
X127272840Y-61911880I0J-200000D01*
G01*
X127272840Y-62461880D01*
G75*
G02*
X127072840Y-62661880I-200000J0D01*
G01*
X126672840Y-62661880D01*
G75*
G02*
X126472840Y-62461880I0J200000D01*
G01*
G37*
G36*
G01*
X124822840Y-62461880D02*
X124822840Y-61911880D01*
G75*
G02*
X125022840Y-61711880I200000J0D01*
G01*
X125422840Y-61711880D01*
G75*
G02*
X125622840Y-61911880I0J-200000D01*
G01*
X125622840Y-62461880D01*
G75*
G02*
X125422840Y-62661880I-200000J0D01*
G01*
X125022840Y-62661880D01*
G75*
G02*
X124822840Y-62461880I0J200000D01*
G01*
G37*
%TD*%
%TO.C,R25*%
G36*
G01*
X122876200Y-64069700D02*
X122876200Y-63519700D01*
G75*
G02*
X123076200Y-63319700I200000J0D01*
G01*
X123476200Y-63319700D01*
G75*
G02*
X123676200Y-63519700I0J-200000D01*
G01*
X123676200Y-64069700D01*
G75*
G02*
X123476200Y-64269700I-200000J0D01*
G01*
X123076200Y-64269700D01*
G75*
G02*
X122876200Y-64069700I0J200000D01*
G01*
G37*
G36*
G01*
X121226200Y-64069700D02*
X121226200Y-63519700D01*
G75*
G02*
X121426200Y-63319700I200000J0D01*
G01*
X121826200Y-63319700D01*
G75*
G02*
X122026200Y-63519700I0J-200000D01*
G01*
X122026200Y-64069700D01*
G75*
G02*
X121826200Y-64269700I-200000J0D01*
G01*
X121426200Y-64269700D01*
G75*
G02*
X121226200Y-64069700I0J200000D01*
G01*
G37*
%TD*%
%TO.C,R24*%
G36*
G01*
X114325000Y-85975000D02*
X114325000Y-85425000D01*
G75*
G02*
X114525000Y-85225000I200000J0D01*
G01*
X114925000Y-85225000D01*
G75*
G02*
X115125000Y-85425000I0J-200000D01*
G01*
X115125000Y-85975000D01*
G75*
G02*
X114925000Y-86175000I-200000J0D01*
G01*
X114525000Y-86175000D01*
G75*
G02*
X114325000Y-85975000I0J200000D01*
G01*
G37*
G36*
G01*
X112675000Y-85975000D02*
X112675000Y-85425000D01*
G75*
G02*
X112875000Y-85225000I200000J0D01*
G01*
X113275000Y-85225000D01*
G75*
G02*
X113475000Y-85425000I0J-200000D01*
G01*
X113475000Y-85975000D01*
G75*
G02*
X113275000Y-86175000I-200000J0D01*
G01*
X112875000Y-86175000D01*
G75*
G02*
X112675000Y-85975000I0J200000D01*
G01*
G37*
%TD*%
%TO.C,R23*%
G36*
G01*
X136225000Y-61325000D02*
X136775000Y-61325000D01*
G75*
G02*
X136975000Y-61525000I0J-200000D01*
G01*
X136975000Y-61925000D01*
G75*
G02*
X136775000Y-62125000I-200000J0D01*
G01*
X136225000Y-62125000D01*
G75*
G02*
X136025000Y-61925000I0J200000D01*
G01*
X136025000Y-61525000D01*
G75*
G02*
X136225000Y-61325000I200000J0D01*
G01*
G37*
G36*
G01*
X136225000Y-59675000D02*
X136775000Y-59675000D01*
G75*
G02*
X136975000Y-59875000I0J-200000D01*
G01*
X136975000Y-60275000D01*
G75*
G02*
X136775000Y-60475000I-200000J0D01*
G01*
X136225000Y-60475000D01*
G75*
G02*
X136025000Y-60275000I0J200000D01*
G01*
X136025000Y-59875000D01*
G75*
G02*
X136225000Y-59675000I200000J0D01*
G01*
G37*
%TD*%
%TO.C,R22*%
G36*
G01*
X132475000Y-62112400D02*
X131925000Y-62112400D01*
G75*
G02*
X131725000Y-61912400I0J200000D01*
G01*
X131725000Y-61512400D01*
G75*
G02*
X131925000Y-61312400I200000J0D01*
G01*
X132475000Y-61312400D01*
G75*
G02*
X132675000Y-61512400I0J-200000D01*
G01*
X132675000Y-61912400D01*
G75*
G02*
X132475000Y-62112400I-200000J0D01*
G01*
G37*
G36*
G01*
X132475000Y-63762400D02*
X131925000Y-63762400D01*
G75*
G02*
X131725000Y-63562400I0J200000D01*
G01*
X131725000Y-63162400D01*
G75*
G02*
X131925000Y-62962400I200000J0D01*
G01*
X132475000Y-62962400D01*
G75*
G02*
X132675000Y-63162400I0J-200000D01*
G01*
X132675000Y-63562400D01*
G75*
G02*
X132475000Y-63762400I-200000J0D01*
G01*
G37*
%TD*%
%TO.C,R21*%
G36*
G01*
X132529100Y-64535700D02*
X132529100Y-65085700D01*
G75*
G02*
X132329100Y-65285700I-200000J0D01*
G01*
X131929100Y-65285700D01*
G75*
G02*
X131729100Y-65085700I0J200000D01*
G01*
X131729100Y-64535700D01*
G75*
G02*
X131929100Y-64335700I200000J0D01*
G01*
X132329100Y-64335700D01*
G75*
G02*
X132529100Y-64535700I0J-200000D01*
G01*
G37*
G36*
G01*
X134179100Y-64535700D02*
X134179100Y-65085700D01*
G75*
G02*
X133979100Y-65285700I-200000J0D01*
G01*
X133579100Y-65285700D01*
G75*
G02*
X133379100Y-65085700I0J200000D01*
G01*
X133379100Y-64535700D01*
G75*
G02*
X133579100Y-64335700I200000J0D01*
G01*
X133979100Y-64335700D01*
G75*
G02*
X134179100Y-64535700I0J-200000D01*
G01*
G37*
%TD*%
%TO.C,R20*%
G36*
G01*
X114325000Y-83575000D02*
X114325000Y-83025000D01*
G75*
G02*
X114525000Y-82825000I200000J0D01*
G01*
X114925000Y-82825000D01*
G75*
G02*
X115125000Y-83025000I0J-200000D01*
G01*
X115125000Y-83575000D01*
G75*
G02*
X114925000Y-83775000I-200000J0D01*
G01*
X114525000Y-83775000D01*
G75*
G02*
X114325000Y-83575000I0J200000D01*
G01*
G37*
G36*
G01*
X112675000Y-83575000D02*
X112675000Y-83025000D01*
G75*
G02*
X112875000Y-82825000I200000J0D01*
G01*
X113275000Y-82825000D01*
G75*
G02*
X113475000Y-83025000I0J-200000D01*
G01*
X113475000Y-83575000D01*
G75*
G02*
X113275000Y-83775000I-200000J0D01*
G01*
X112875000Y-83775000D01*
G75*
G02*
X112675000Y-83575000I0J200000D01*
G01*
G37*
%TD*%
%TO.C,R19*%
G36*
G01*
X155775000Y-63525000D02*
X155775000Y-64075000D01*
G75*
G02*
X155575000Y-64275000I-200000J0D01*
G01*
X155175000Y-64275000D01*
G75*
G02*
X154975000Y-64075000I0J200000D01*
G01*
X154975000Y-63525000D01*
G75*
G02*
X155175000Y-63325000I200000J0D01*
G01*
X155575000Y-63325000D01*
G75*
G02*
X155775000Y-63525000I0J-200000D01*
G01*
G37*
G36*
G01*
X157425000Y-63525000D02*
X157425000Y-64075000D01*
G75*
G02*
X157225000Y-64275000I-200000J0D01*
G01*
X156825000Y-64275000D01*
G75*
G02*
X156625000Y-64075000I0J200000D01*
G01*
X156625000Y-63525000D01*
G75*
G02*
X156825000Y-63325000I200000J0D01*
G01*
X157225000Y-63325000D01*
G75*
G02*
X157425000Y-63525000I0J-200000D01*
G01*
G37*
%TD*%
%TO.C,R18*%
G36*
G01*
X156625000Y-65725000D02*
X156625000Y-65175000D01*
G75*
G02*
X156825000Y-64975000I200000J0D01*
G01*
X157225000Y-64975000D01*
G75*
G02*
X157425000Y-65175000I0J-200000D01*
G01*
X157425000Y-65725000D01*
G75*
G02*
X157225000Y-65925000I-200000J0D01*
G01*
X156825000Y-65925000D01*
G75*
G02*
X156625000Y-65725000I0J200000D01*
G01*
G37*
G36*
G01*
X154975000Y-65725000D02*
X154975000Y-65175000D01*
G75*
G02*
X155175000Y-64975000I200000J0D01*
G01*
X155575000Y-64975000D01*
G75*
G02*
X155775000Y-65175000I0J-200000D01*
G01*
X155775000Y-65725000D01*
G75*
G02*
X155575000Y-65925000I-200000J0D01*
G01*
X155175000Y-65925000D01*
G75*
G02*
X154975000Y-65725000I0J200000D01*
G01*
G37*
%TD*%
%TO.C,R17*%
G36*
G01*
X134225000Y-61325000D02*
X134775000Y-61325000D01*
G75*
G02*
X134975000Y-61525000I0J-200000D01*
G01*
X134975000Y-61925000D01*
G75*
G02*
X134775000Y-62125000I-200000J0D01*
G01*
X134225000Y-62125000D01*
G75*
G02*
X134025000Y-61925000I0J200000D01*
G01*
X134025000Y-61525000D01*
G75*
G02*
X134225000Y-61325000I200000J0D01*
G01*
G37*
G36*
G01*
X134225000Y-59675000D02*
X134775000Y-59675000D01*
G75*
G02*
X134975000Y-59875000I0J-200000D01*
G01*
X134975000Y-60275000D01*
G75*
G02*
X134775000Y-60475000I-200000J0D01*
G01*
X134225000Y-60475000D01*
G75*
G02*
X134025000Y-60275000I0J200000D01*
G01*
X134025000Y-59875000D01*
G75*
G02*
X134225000Y-59675000I200000J0D01*
G01*
G37*
%TD*%
%TO.C,R16*%
G36*
G01*
X154425000Y-61325000D02*
X154975000Y-61325000D01*
G75*
G02*
X155175000Y-61525000I0J-200000D01*
G01*
X155175000Y-61925000D01*
G75*
G02*
X154975000Y-62125000I-200000J0D01*
G01*
X154425000Y-62125000D01*
G75*
G02*
X154225000Y-61925000I0J200000D01*
G01*
X154225000Y-61525000D01*
G75*
G02*
X154425000Y-61325000I200000J0D01*
G01*
G37*
G36*
G01*
X154425000Y-59675000D02*
X154975000Y-59675000D01*
G75*
G02*
X155175000Y-59875000I0J-200000D01*
G01*
X155175000Y-60275000D01*
G75*
G02*
X154975000Y-60475000I-200000J0D01*
G01*
X154425000Y-60475000D01*
G75*
G02*
X154225000Y-60275000I0J200000D01*
G01*
X154225000Y-59875000D01*
G75*
G02*
X154425000Y-59675000I200000J0D01*
G01*
G37*
%TD*%
%TO.C,R15*%
G36*
G01*
X152425000Y-61325000D02*
X152975000Y-61325000D01*
G75*
G02*
X153175000Y-61525000I0J-200000D01*
G01*
X153175000Y-61925000D01*
G75*
G02*
X152975000Y-62125000I-200000J0D01*
G01*
X152425000Y-62125000D01*
G75*
G02*
X152225000Y-61925000I0J200000D01*
G01*
X152225000Y-61525000D01*
G75*
G02*
X152425000Y-61325000I200000J0D01*
G01*
G37*
G36*
G01*
X152425000Y-59675000D02*
X152975000Y-59675000D01*
G75*
G02*
X153175000Y-59875000I0J-200000D01*
G01*
X153175000Y-60275000D01*
G75*
G02*
X152975000Y-60475000I-200000J0D01*
G01*
X152425000Y-60475000D01*
G75*
G02*
X152225000Y-60275000I0J200000D01*
G01*
X152225000Y-59875000D01*
G75*
G02*
X152425000Y-59675000I200000J0D01*
G01*
G37*
%TD*%
%TO.C,R14*%
G36*
G01*
X168575000Y-65846200D02*
X168025000Y-65846200D01*
G75*
G02*
X167825000Y-65646200I0J200000D01*
G01*
X167825000Y-65246200D01*
G75*
G02*
X168025000Y-65046200I200000J0D01*
G01*
X168575000Y-65046200D01*
G75*
G02*
X168775000Y-65246200I0J-200000D01*
G01*
X168775000Y-65646200D01*
G75*
G02*
X168575000Y-65846200I-200000J0D01*
G01*
G37*
G36*
G01*
X168575000Y-67496200D02*
X168025000Y-67496200D01*
G75*
G02*
X167825000Y-67296200I0J200000D01*
G01*
X167825000Y-66896200D01*
G75*
G02*
X168025000Y-66696200I200000J0D01*
G01*
X168575000Y-66696200D01*
G75*
G02*
X168775000Y-66896200I0J-200000D01*
G01*
X168775000Y-67296200D01*
G75*
G02*
X168575000Y-67496200I-200000J0D01*
G01*
G37*
%TD*%
%TO.C,R13*%
G36*
G01*
X175075000Y-85425000D02*
X175075000Y-85975000D01*
G75*
G02*
X174875000Y-86175000I-200000J0D01*
G01*
X174475000Y-86175000D01*
G75*
G02*
X174275000Y-85975000I0J200000D01*
G01*
X174275000Y-85425000D01*
G75*
G02*
X174475000Y-85225000I200000J0D01*
G01*
X174875000Y-85225000D01*
G75*
G02*
X175075000Y-85425000I0J-200000D01*
G01*
G37*
G36*
G01*
X176725000Y-85425000D02*
X176725000Y-85975000D01*
G75*
G02*
X176525000Y-86175000I-200000J0D01*
G01*
X176125000Y-86175000D01*
G75*
G02*
X175925000Y-85975000I0J200000D01*
G01*
X175925000Y-85425000D01*
G75*
G02*
X176125000Y-85225000I200000J0D01*
G01*
X176525000Y-85225000D01*
G75*
G02*
X176725000Y-85425000I0J-200000D01*
G01*
G37*
%TD*%
%TO.C,R12*%
G36*
G01*
X175075000Y-83025000D02*
X175075000Y-83575000D01*
G75*
G02*
X174875000Y-83775000I-200000J0D01*
G01*
X174475000Y-83775000D01*
G75*
G02*
X174275000Y-83575000I0J200000D01*
G01*
X174275000Y-83025000D01*
G75*
G02*
X174475000Y-82825000I200000J0D01*
G01*
X174875000Y-82825000D01*
G75*
G02*
X175075000Y-83025000I0J-200000D01*
G01*
G37*
G36*
G01*
X176725000Y-83025000D02*
X176725000Y-83575000D01*
G75*
G02*
X176525000Y-83775000I-200000J0D01*
G01*
X176125000Y-83775000D01*
G75*
G02*
X175925000Y-83575000I0J200000D01*
G01*
X175925000Y-83025000D01*
G75*
G02*
X176125000Y-82825000I200000J0D01*
G01*
X176525000Y-82825000D01*
G75*
G02*
X176725000Y-83025000I0J-200000D01*
G01*
G37*
%TD*%
%TO.C,R11*%
G36*
G01*
X166775000Y-64195200D02*
X166225000Y-64195200D01*
G75*
G02*
X166025000Y-63995200I0J200000D01*
G01*
X166025000Y-63595200D01*
G75*
G02*
X166225000Y-63395200I200000J0D01*
G01*
X166775000Y-63395200D01*
G75*
G02*
X166975000Y-63595200I0J-200000D01*
G01*
X166975000Y-63995200D01*
G75*
G02*
X166775000Y-64195200I-200000J0D01*
G01*
G37*
G36*
G01*
X166775000Y-65845200D02*
X166225000Y-65845200D01*
G75*
G02*
X166025000Y-65645200I0J200000D01*
G01*
X166025000Y-65245200D01*
G75*
G02*
X166225000Y-65045200I200000J0D01*
G01*
X166775000Y-65045200D01*
G75*
G02*
X166975000Y-65245200I0J-200000D01*
G01*
X166975000Y-65645200D01*
G75*
G02*
X166775000Y-65845200I-200000J0D01*
G01*
G37*
%TD*%
%TO.C,R10*%
G36*
G01*
X156325000Y-137225000D02*
X156875000Y-137225000D01*
G75*
G02*
X157075000Y-137425000I0J-200000D01*
G01*
X157075000Y-137825000D01*
G75*
G02*
X156875000Y-138025000I-200000J0D01*
G01*
X156325000Y-138025000D01*
G75*
G02*
X156125000Y-137825000I0J200000D01*
G01*
X156125000Y-137425000D01*
G75*
G02*
X156325000Y-137225000I200000J0D01*
G01*
G37*
G36*
G01*
X156325000Y-135575000D02*
X156875000Y-135575000D01*
G75*
G02*
X157075000Y-135775000I0J-200000D01*
G01*
X157075000Y-136175000D01*
G75*
G02*
X156875000Y-136375000I-200000J0D01*
G01*
X156325000Y-136375000D01*
G75*
G02*
X156125000Y-136175000I0J200000D01*
G01*
X156125000Y-135775000D01*
G75*
G02*
X156325000Y-135575000I200000J0D01*
G01*
G37*
%TD*%
%TO.C,R9*%
G36*
G01*
X154425000Y-137225000D02*
X154975000Y-137225000D01*
G75*
G02*
X155175000Y-137425000I0J-200000D01*
G01*
X155175000Y-137825000D01*
G75*
G02*
X154975000Y-138025000I-200000J0D01*
G01*
X154425000Y-138025000D01*
G75*
G02*
X154225000Y-137825000I0J200000D01*
G01*
X154225000Y-137425000D01*
G75*
G02*
X154425000Y-137225000I200000J0D01*
G01*
G37*
G36*
G01*
X154425000Y-135575000D02*
X154975000Y-135575000D01*
G75*
G02*
X155175000Y-135775000I0J-200000D01*
G01*
X155175000Y-136175000D01*
G75*
G02*
X154975000Y-136375000I-200000J0D01*
G01*
X154425000Y-136375000D01*
G75*
G02*
X154225000Y-136175000I0J200000D01*
G01*
X154225000Y-135775000D01*
G75*
G02*
X154425000Y-135575000I200000J0D01*
G01*
G37*
%TD*%
%TO.C,R8*%
G36*
G01*
X130549400Y-77149200D02*
X129999400Y-77149200D01*
G75*
G02*
X129799400Y-76949200I0J200000D01*
G01*
X129799400Y-76549200D01*
G75*
G02*
X129999400Y-76349200I200000J0D01*
G01*
X130549400Y-76349200D01*
G75*
G02*
X130749400Y-76549200I0J-200000D01*
G01*
X130749400Y-76949200D01*
G75*
G02*
X130549400Y-77149200I-200000J0D01*
G01*
G37*
G36*
G01*
X130549400Y-78799200D02*
X129999400Y-78799200D01*
G75*
G02*
X129799400Y-78599200I0J200000D01*
G01*
X129799400Y-78199200D01*
G75*
G02*
X129999400Y-77999200I200000J0D01*
G01*
X130549400Y-77999200D01*
G75*
G02*
X130749400Y-78199200I0J-200000D01*
G01*
X130749400Y-78599200D01*
G75*
G02*
X130549400Y-78799200I-200000J0D01*
G01*
G37*
%TD*%
%TO.C,R7*%
G36*
G01*
X130675000Y-79825000D02*
X130675000Y-80375000D01*
G75*
G02*
X130475000Y-80575000I-200000J0D01*
G01*
X130075000Y-80575000D01*
G75*
G02*
X129875000Y-80375000I0J200000D01*
G01*
X129875000Y-79825000D01*
G75*
G02*
X130075000Y-79625000I200000J0D01*
G01*
X130475000Y-79625000D01*
G75*
G02*
X130675000Y-79825000I0J-200000D01*
G01*
G37*
G36*
G01*
X132325000Y-79825000D02*
X132325000Y-80375000D01*
G75*
G02*
X132125000Y-80575000I-200000J0D01*
G01*
X131725000Y-80575000D01*
G75*
G02*
X131525000Y-80375000I0J200000D01*
G01*
X131525000Y-79825000D01*
G75*
G02*
X131725000Y-79625000I200000J0D01*
G01*
X132125000Y-79625000D01*
G75*
G02*
X132325000Y-79825000I0J-200000D01*
G01*
G37*
%TD*%
%TO.C,R6*%
G36*
G01*
X152525000Y-135575000D02*
X153075000Y-135575000D01*
G75*
G02*
X153275000Y-135775000I0J-200000D01*
G01*
X153275000Y-136175000D01*
G75*
G02*
X153075000Y-136375000I-200000J0D01*
G01*
X152525000Y-136375000D01*
G75*
G02*
X152325000Y-136175000I0J200000D01*
G01*
X152325000Y-135775000D01*
G75*
G02*
X152525000Y-135575000I200000J0D01*
G01*
G37*
G36*
G01*
X152525000Y-137225000D02*
X153075000Y-137225000D01*
G75*
G02*
X153275000Y-137425000I0J-200000D01*
G01*
X153275000Y-137825000D01*
G75*
G02*
X153075000Y-138025000I-200000J0D01*
G01*
X152525000Y-138025000D01*
G75*
G02*
X152325000Y-137825000I0J200000D01*
G01*
X152325000Y-137425000D01*
G75*
G02*
X152525000Y-137225000I200000J0D01*
G01*
G37*
%TD*%
%TO.C,R5*%
G36*
G01*
X150625000Y-137225000D02*
X151175000Y-137225000D01*
G75*
G02*
X151375000Y-137425000I0J-200000D01*
G01*
X151375000Y-137825000D01*
G75*
G02*
X151175000Y-138025000I-200000J0D01*
G01*
X150625000Y-138025000D01*
G75*
G02*
X150425000Y-137825000I0J200000D01*
G01*
X150425000Y-137425000D01*
G75*
G02*
X150625000Y-137225000I200000J0D01*
G01*
G37*
G36*
G01*
X150625000Y-135575000D02*
X151175000Y-135575000D01*
G75*
G02*
X151375000Y-135775000I0J-200000D01*
G01*
X151375000Y-136175000D01*
G75*
G02*
X151175000Y-136375000I-200000J0D01*
G01*
X150625000Y-136375000D01*
G75*
G02*
X150425000Y-136175000I0J200000D01*
G01*
X150425000Y-135775000D01*
G75*
G02*
X150625000Y-135575000I200000J0D01*
G01*
G37*
%TD*%
%TO.C,R4*%
G36*
G01*
X161749400Y-78558500D02*
X162299400Y-78558500D01*
G75*
G02*
X162499400Y-78758500I0J-200000D01*
G01*
X162499400Y-79158500D01*
G75*
G02*
X162299400Y-79358500I-200000J0D01*
G01*
X161749400Y-79358500D01*
G75*
G02*
X161549400Y-79158500I0J200000D01*
G01*
X161549400Y-78758500D01*
G75*
G02*
X161749400Y-78558500I200000J0D01*
G01*
G37*
G36*
G01*
X161749400Y-76908500D02*
X162299400Y-76908500D01*
G75*
G02*
X162499400Y-77108500I0J-200000D01*
G01*
X162499400Y-77508500D01*
G75*
G02*
X162299400Y-77708500I-200000J0D01*
G01*
X161749400Y-77708500D01*
G75*
G02*
X161549400Y-77508500I0J200000D01*
G01*
X161549400Y-77108500D01*
G75*
G02*
X161749400Y-76908500I200000J0D01*
G01*
G37*
%TD*%
%TO.C,R3*%
G36*
G01*
X166750001Y-80500000D02*
X165849999Y-80500000D01*
G75*
G02*
X165600000Y-80250001I0J249999D01*
G01*
X165600000Y-79724999D01*
G75*
G02*
X165849999Y-79475000I249999J0D01*
G01*
X166750001Y-79475000D01*
G75*
G02*
X167000000Y-79724999I0J-249999D01*
G01*
X167000000Y-80250001D01*
G75*
G02*
X166750001Y-80500000I-249999J0D01*
G01*
G37*
G36*
G01*
X166750001Y-82325000D02*
X165849999Y-82325000D01*
G75*
G02*
X165600000Y-82075001I0J249999D01*
G01*
X165600000Y-81549999D01*
G75*
G02*
X165849999Y-81300000I249999J0D01*
G01*
X166750001Y-81300000D01*
G75*
G02*
X167000000Y-81549999I0J-249999D01*
G01*
X167000000Y-82075001D01*
G75*
G02*
X166750001Y-82325000I-249999J0D01*
G01*
G37*
%TD*%
%TO.C,R2*%
G36*
G01*
X164650001Y-82300000D02*
X163749999Y-82300000D01*
G75*
G02*
X163500000Y-82050001I0J249999D01*
G01*
X163500000Y-81524999D01*
G75*
G02*
X163749999Y-81275000I249999J0D01*
G01*
X164650001Y-81275000D01*
G75*
G02*
X164900000Y-81524999I0J-249999D01*
G01*
X164900000Y-82050001D01*
G75*
G02*
X164650001Y-82300000I-249999J0D01*
G01*
G37*
G36*
G01*
X164650001Y-84125000D02*
X163749999Y-84125000D01*
G75*
G02*
X163500000Y-83875001I0J249999D01*
G01*
X163500000Y-83349999D01*
G75*
G02*
X163749999Y-83100000I249999J0D01*
G01*
X164650001Y-83100000D01*
G75*
G02*
X164900000Y-83349999I0J-249999D01*
G01*
X164900000Y-83875001D01*
G75*
G02*
X164650001Y-84125000I-249999J0D01*
G01*
G37*
%TD*%
D18*
%TO.C,Q2*%
X126300000Y-78950000D03*
X128300000Y-78000000D03*
X128300000Y-79900000D03*
%TD*%
D28*
%TO.C,LS1*%
X120050000Y-76100000D03*
X123850000Y-79600000D03*
X120050000Y-79600000D03*
%TD*%
D29*
%TO.C,J6*%
X115320000Y-95200000D03*
X112780000Y-95200000D03*
X110240000Y-95200000D03*
D30*
X107700000Y-95200000D03*
%TD*%
D11*
%TO.C,J5*%
X119454000Y-92306200D03*
%TD*%
%TO.C,J3*%
X119454000Y-89766200D03*
%TD*%
D29*
%TO.C,J1*%
X130780000Y-137425000D03*
X128240000Y-137425000D03*
D30*
X125700000Y-137425000D03*
%TD*%
%TO.C,D5*%
G36*
G01*
X156856250Y-140450000D02*
X156343750Y-140450000D01*
G75*
G02*
X156125000Y-140231250I0J218750D01*
G01*
X156125000Y-139793750D01*
G75*
G02*
X156343750Y-139575000I218750J0D01*
G01*
X156856250Y-139575000D01*
G75*
G02*
X157075000Y-139793750I0J-218750D01*
G01*
X157075000Y-140231250D01*
G75*
G02*
X156856250Y-140450000I-218750J0D01*
G01*
G37*
G36*
G01*
X156856250Y-142025000D02*
X156343750Y-142025000D01*
G75*
G02*
X156125000Y-141806250I0J218750D01*
G01*
X156125000Y-141368750D01*
G75*
G02*
X156343750Y-141150000I218750J0D01*
G01*
X156856250Y-141150000D01*
G75*
G02*
X157075000Y-141368750I0J-218750D01*
G01*
X157075000Y-141806250D01*
G75*
G02*
X156856250Y-142025000I-218750J0D01*
G01*
G37*
%TD*%
%TO.C,D4*%
G36*
G01*
X154956250Y-140450000D02*
X154443750Y-140450000D01*
G75*
G02*
X154225000Y-140231250I0J218750D01*
G01*
X154225000Y-139793750D01*
G75*
G02*
X154443750Y-139575000I218750J0D01*
G01*
X154956250Y-139575000D01*
G75*
G02*
X155175000Y-139793750I0J-218750D01*
G01*
X155175000Y-140231250D01*
G75*
G02*
X154956250Y-140450000I-218750J0D01*
G01*
G37*
G36*
G01*
X154956250Y-142025000D02*
X154443750Y-142025000D01*
G75*
G02*
X154225000Y-141806250I0J218750D01*
G01*
X154225000Y-141368750D01*
G75*
G02*
X154443750Y-141150000I218750J0D01*
G01*
X154956250Y-141150000D01*
G75*
G02*
X155175000Y-141368750I0J-218750D01*
G01*
X155175000Y-141806250D01*
G75*
G02*
X154956250Y-142025000I-218750J0D01*
G01*
G37*
%TD*%
%TO.C,D3*%
G36*
G01*
X153056250Y-140450000D02*
X152543750Y-140450000D01*
G75*
G02*
X152325000Y-140231250I0J218750D01*
G01*
X152325000Y-139793750D01*
G75*
G02*
X152543750Y-139575000I218750J0D01*
G01*
X153056250Y-139575000D01*
G75*
G02*
X153275000Y-139793750I0J-218750D01*
G01*
X153275000Y-140231250D01*
G75*
G02*
X153056250Y-140450000I-218750J0D01*
G01*
G37*
G36*
G01*
X153056250Y-142025000D02*
X152543750Y-142025000D01*
G75*
G02*
X152325000Y-141806250I0J218750D01*
G01*
X152325000Y-141368750D01*
G75*
G02*
X152543750Y-141150000I218750J0D01*
G01*
X153056250Y-141150000D01*
G75*
G02*
X153275000Y-141368750I0J-218750D01*
G01*
X153275000Y-141806250D01*
G75*
G02*
X153056250Y-142025000I-218750J0D01*
G01*
G37*
%TD*%
%TO.C,D2*%
G36*
G01*
X151156250Y-140457500D02*
X150643750Y-140457500D01*
G75*
G02*
X150425000Y-140238750I0J218750D01*
G01*
X150425000Y-139801250D01*
G75*
G02*
X150643750Y-139582500I218750J0D01*
G01*
X151156250Y-139582500D01*
G75*
G02*
X151375000Y-139801250I0J-218750D01*
G01*
X151375000Y-140238750D01*
G75*
G02*
X151156250Y-140457500I-218750J0D01*
G01*
G37*
G36*
G01*
X151156250Y-142032500D02*
X150643750Y-142032500D01*
G75*
G02*
X150425000Y-141813750I0J218750D01*
G01*
X150425000Y-141376250D01*
G75*
G02*
X150643750Y-141157500I218750J0D01*
G01*
X151156250Y-141157500D01*
G75*
G02*
X151375000Y-141376250I0J-218750D01*
G01*
X151375000Y-141813750D01*
G75*
G02*
X151156250Y-142032500I-218750J0D01*
G01*
G37*
%TD*%
%TO.C,D1*%
G36*
G01*
X161550000Y-80806250D02*
X161550000Y-80293750D01*
G75*
G02*
X161768750Y-80075000I218750J0D01*
G01*
X162206250Y-80075000D01*
G75*
G02*
X162425000Y-80293750I0J-218750D01*
G01*
X162425000Y-80806250D01*
G75*
G02*
X162206250Y-81025000I-218750J0D01*
G01*
X161768750Y-81025000D01*
G75*
G02*
X161550000Y-80806250I0J218750D01*
G01*
G37*
G36*
G01*
X159975000Y-80806250D02*
X159975000Y-80293750D01*
G75*
G02*
X160193750Y-80075000I218750J0D01*
G01*
X160631250Y-80075000D01*
G75*
G02*
X160850000Y-80293750I0J-218750D01*
G01*
X160850000Y-80806250D01*
G75*
G02*
X160631250Y-81025000I-218750J0D01*
G01*
X160193750Y-81025000D01*
G75*
G02*
X159975000Y-80806250I0J218750D01*
G01*
G37*
%TD*%
%TO.C,C24*%
G36*
G01*
X156415000Y-74470200D02*
X156915000Y-74470200D01*
G75*
G02*
X157140000Y-74695200I0J-225000D01*
G01*
X157140000Y-75145200D01*
G75*
G02*
X156915000Y-75370200I-225000J0D01*
G01*
X156415000Y-75370200D01*
G75*
G02*
X156190000Y-75145200I0J225000D01*
G01*
X156190000Y-74695200D01*
G75*
G02*
X156415000Y-74470200I225000J0D01*
G01*
G37*
G36*
G01*
X156415000Y-72920200D02*
X156915000Y-72920200D01*
G75*
G02*
X157140000Y-73145200I0J-225000D01*
G01*
X157140000Y-73595200D01*
G75*
G02*
X156915000Y-73820200I-225000J0D01*
G01*
X156415000Y-73820200D01*
G75*
G02*
X156190000Y-73595200I0J225000D01*
G01*
X156190000Y-73145200D01*
G75*
G02*
X156415000Y-72920200I225000J0D01*
G01*
G37*
%TD*%
%TO.C,C23*%
G36*
G01*
X147702800Y-91031000D02*
X148202800Y-91031000D01*
G75*
G02*
X148427800Y-91256000I0J-225000D01*
G01*
X148427800Y-91706000D01*
G75*
G02*
X148202800Y-91931000I-225000J0D01*
G01*
X147702800Y-91931000D01*
G75*
G02*
X147477800Y-91706000I0J225000D01*
G01*
X147477800Y-91256000D01*
G75*
G02*
X147702800Y-91031000I225000J0D01*
G01*
G37*
G36*
G01*
X147702800Y-89481000D02*
X148202800Y-89481000D01*
G75*
G02*
X148427800Y-89706000I0J-225000D01*
G01*
X148427800Y-90156000D01*
G75*
G02*
X148202800Y-90381000I-225000J0D01*
G01*
X147702800Y-90381000D01*
G75*
G02*
X147477800Y-90156000I0J225000D01*
G01*
X147477800Y-89706000D01*
G75*
G02*
X147702800Y-89481000I225000J0D01*
G01*
G37*
%TD*%
%TO.C,C22*%
G36*
G01*
X122113500Y-67354700D02*
X122113500Y-67854700D01*
G75*
G02*
X121888500Y-68079700I-225000J0D01*
G01*
X121438500Y-68079700D01*
G75*
G02*
X121213500Y-67854700I0J225000D01*
G01*
X121213500Y-67354700D01*
G75*
G02*
X121438500Y-67129700I225000J0D01*
G01*
X121888500Y-67129700D01*
G75*
G02*
X122113500Y-67354700I0J-225000D01*
G01*
G37*
G36*
G01*
X123663500Y-67354700D02*
X123663500Y-67854700D01*
G75*
G02*
X123438500Y-68079700I-225000J0D01*
G01*
X122988500Y-68079700D01*
G75*
G02*
X122763500Y-67854700I0J225000D01*
G01*
X122763500Y-67354700D01*
G75*
G02*
X122988500Y-67129700I225000J0D01*
G01*
X123438500Y-67129700D01*
G75*
G02*
X123663500Y-67354700I0J-225000D01*
G01*
G37*
%TD*%
%TO.C,C21*%
G36*
G01*
X160325000Y-69650000D02*
X160325000Y-69150000D01*
G75*
G02*
X160550000Y-68925000I225000J0D01*
G01*
X161000000Y-68925000D01*
G75*
G02*
X161225000Y-69150000I0J-225000D01*
G01*
X161225000Y-69650000D01*
G75*
G02*
X161000000Y-69875000I-225000J0D01*
G01*
X160550000Y-69875000D01*
G75*
G02*
X160325000Y-69650000I0J225000D01*
G01*
G37*
G36*
G01*
X158775000Y-69650000D02*
X158775000Y-69150000D01*
G75*
G02*
X159000000Y-68925000I225000J0D01*
G01*
X159450000Y-68925000D01*
G75*
G02*
X159675000Y-69150000I0J-225000D01*
G01*
X159675000Y-69650000D01*
G75*
G02*
X159450000Y-69875000I-225000J0D01*
G01*
X159000000Y-69875000D01*
G75*
G02*
X158775000Y-69650000I0J225000D01*
G01*
G37*
%TD*%
%TO.C,C20*%
G36*
G01*
X149725000Y-128150000D02*
X150675000Y-128150000D01*
G75*
G02*
X150925000Y-128400000I0J-250000D01*
G01*
X150925000Y-128900000D01*
G75*
G02*
X150675000Y-129150000I-250000J0D01*
G01*
X149725000Y-129150000D01*
G75*
G02*
X149475000Y-128900000I0J250000D01*
G01*
X149475000Y-128400000D01*
G75*
G02*
X149725000Y-128150000I250000J0D01*
G01*
G37*
G36*
G01*
X149725000Y-126250000D02*
X150675000Y-126250000D01*
G75*
G02*
X150925000Y-126500000I0J-250000D01*
G01*
X150925000Y-127000000D01*
G75*
G02*
X150675000Y-127250000I-250000J0D01*
G01*
X149725000Y-127250000D01*
G75*
G02*
X149475000Y-127000000I0J250000D01*
G01*
X149475000Y-126500000D01*
G75*
G02*
X149725000Y-126250000I250000J0D01*
G01*
G37*
%TD*%
%TO.C,C19*%
G36*
G01*
X138525000Y-128150000D02*
X139475000Y-128150000D01*
G75*
G02*
X139725000Y-128400000I0J-250000D01*
G01*
X139725000Y-128900000D01*
G75*
G02*
X139475000Y-129150000I-250000J0D01*
G01*
X138525000Y-129150000D01*
G75*
G02*
X138275000Y-128900000I0J250000D01*
G01*
X138275000Y-128400000D01*
G75*
G02*
X138525000Y-128150000I250000J0D01*
G01*
G37*
G36*
G01*
X138525000Y-126250000D02*
X139475000Y-126250000D01*
G75*
G02*
X139725000Y-126500000I0J-250000D01*
G01*
X139725000Y-127000000D01*
G75*
G02*
X139475000Y-127250000I-250000J0D01*
G01*
X138525000Y-127250000D01*
G75*
G02*
X138275000Y-127000000I0J250000D01*
G01*
X138275000Y-126500000D01*
G75*
G02*
X138525000Y-126250000I250000J0D01*
G01*
G37*
%TD*%
%TO.C,C18*%
G36*
G01*
X145550000Y-139516000D02*
X145550000Y-138416000D01*
G75*
G02*
X145800000Y-138166000I250000J0D01*
G01*
X148800000Y-138166000D01*
G75*
G02*
X149050000Y-138416000I0J-250000D01*
G01*
X149050000Y-139516000D01*
G75*
G02*
X148800000Y-139766000I-250000J0D01*
G01*
X145800000Y-139766000D01*
G75*
G02*
X145550000Y-139516000I0J250000D01*
G01*
G37*
G36*
G01*
X140150000Y-139516000D02*
X140150000Y-138416000D01*
G75*
G02*
X140400000Y-138166000I250000J0D01*
G01*
X143400000Y-138166000D01*
G75*
G02*
X143650000Y-138416000I0J-250000D01*
G01*
X143650000Y-139516000D01*
G75*
G02*
X143400000Y-139766000I-250000J0D01*
G01*
X140400000Y-139766000D01*
G75*
G02*
X140150000Y-139516000I0J250000D01*
G01*
G37*
%TD*%
%TO.C,C17*%
G36*
G01*
X145024600Y-122042000D02*
X145024600Y-121092000D01*
G75*
G02*
X145274600Y-120842000I250000J0D01*
G01*
X145774600Y-120842000D01*
G75*
G02*
X146024600Y-121092000I0J-250000D01*
G01*
X146024600Y-122042000D01*
G75*
G02*
X145774600Y-122292000I-250000J0D01*
G01*
X145274600Y-122292000D01*
G75*
G02*
X145024600Y-122042000I0J250000D01*
G01*
G37*
G36*
G01*
X143124600Y-122042000D02*
X143124600Y-121092000D01*
G75*
G02*
X143374600Y-120842000I250000J0D01*
G01*
X143874600Y-120842000D01*
G75*
G02*
X144124600Y-121092000I0J-250000D01*
G01*
X144124600Y-122042000D01*
G75*
G02*
X143874600Y-122292000I-250000J0D01*
G01*
X143374600Y-122292000D01*
G75*
G02*
X143124600Y-122042000I0J250000D01*
G01*
G37*
%TD*%
%TO.C,C15*%
G36*
G01*
X143816600Y-73886000D02*
X144316600Y-73886000D01*
G75*
G02*
X144541600Y-74111000I0J-225000D01*
G01*
X144541600Y-74561000D01*
G75*
G02*
X144316600Y-74786000I-225000J0D01*
G01*
X143816600Y-74786000D01*
G75*
G02*
X143591600Y-74561000I0J225000D01*
G01*
X143591600Y-74111000D01*
G75*
G02*
X143816600Y-73886000I225000J0D01*
G01*
G37*
G36*
G01*
X143816600Y-72336000D02*
X144316600Y-72336000D01*
G75*
G02*
X144541600Y-72561000I0J-225000D01*
G01*
X144541600Y-73011000D01*
G75*
G02*
X144316600Y-73236000I-225000J0D01*
G01*
X143816600Y-73236000D01*
G75*
G02*
X143591600Y-73011000I0J225000D01*
G01*
X143591600Y-72561000D01*
G75*
G02*
X143816600Y-72336000I225000J0D01*
G01*
G37*
%TD*%
%TO.C,C13*%
G36*
G01*
X150860980Y-76312900D02*
X150860980Y-75812900D01*
G75*
G02*
X151085980Y-75587900I225000J0D01*
G01*
X151535980Y-75587900D01*
G75*
G02*
X151760980Y-75812900I0J-225000D01*
G01*
X151760980Y-76312900D01*
G75*
G02*
X151535980Y-76537900I-225000J0D01*
G01*
X151085980Y-76537900D01*
G75*
G02*
X150860980Y-76312900I0J225000D01*
G01*
G37*
G36*
G01*
X149310980Y-76312900D02*
X149310980Y-75812900D01*
G75*
G02*
X149535980Y-75587900I225000J0D01*
G01*
X149985980Y-75587900D01*
G75*
G02*
X150210980Y-75812900I0J-225000D01*
G01*
X150210980Y-76312900D01*
G75*
G02*
X149985980Y-76537900I-225000J0D01*
G01*
X149535980Y-76537900D01*
G75*
G02*
X149310980Y-76312900I0J225000D01*
G01*
G37*
%TD*%
%TO.C,C11*%
G36*
G01*
X138350000Y-88325000D02*
X138850000Y-88325000D01*
G75*
G02*
X139075000Y-88550000I0J-225000D01*
G01*
X139075000Y-89000000D01*
G75*
G02*
X138850000Y-89225000I-225000J0D01*
G01*
X138350000Y-89225000D01*
G75*
G02*
X138125000Y-89000000I0J225000D01*
G01*
X138125000Y-88550000D01*
G75*
G02*
X138350000Y-88325000I225000J0D01*
G01*
G37*
G36*
G01*
X138350000Y-86775000D02*
X138850000Y-86775000D01*
G75*
G02*
X139075000Y-87000000I0J-225000D01*
G01*
X139075000Y-87450000D01*
G75*
G02*
X138850000Y-87675000I-225000J0D01*
G01*
X138350000Y-87675000D01*
G75*
G02*
X138125000Y-87450000I0J225000D01*
G01*
X138125000Y-87000000D01*
G75*
G02*
X138350000Y-86775000I225000J0D01*
G01*
G37*
%TD*%
%TO.C,C9*%
G36*
G01*
X137250000Y-76075000D02*
X136750000Y-76075000D01*
G75*
G02*
X136525000Y-75850000I0J225000D01*
G01*
X136525000Y-75400000D01*
G75*
G02*
X136750000Y-75175000I225000J0D01*
G01*
X137250000Y-75175000D01*
G75*
G02*
X137475000Y-75400000I0J-225000D01*
G01*
X137475000Y-75850000D01*
G75*
G02*
X137250000Y-76075000I-225000J0D01*
G01*
G37*
G36*
G01*
X137250000Y-77625000D02*
X136750000Y-77625000D01*
G75*
G02*
X136525000Y-77400000I0J225000D01*
G01*
X136525000Y-76950000D01*
G75*
G02*
X136750000Y-76725000I225000J0D01*
G01*
X137250000Y-76725000D01*
G75*
G02*
X137475000Y-76950000I0J-225000D01*
G01*
X137475000Y-77400000D01*
G75*
G02*
X137250000Y-77625000I-225000J0D01*
G01*
G37*
%TD*%
%TO.C,C8*%
G36*
G01*
X164375000Y-134450000D02*
X164375000Y-134950000D01*
G75*
G02*
X164150000Y-135175000I-225000J0D01*
G01*
X163700000Y-135175000D01*
G75*
G02*
X163475000Y-134950000I0J225000D01*
G01*
X163475000Y-134450000D01*
G75*
G02*
X163700000Y-134225000I225000J0D01*
G01*
X164150000Y-134225000D01*
G75*
G02*
X164375000Y-134450000I0J-225000D01*
G01*
G37*
G36*
G01*
X165925000Y-134450000D02*
X165925000Y-134950000D01*
G75*
G02*
X165700000Y-135175000I-225000J0D01*
G01*
X165250000Y-135175000D01*
G75*
G02*
X165025000Y-134950000I0J225000D01*
G01*
X165025000Y-134450000D01*
G75*
G02*
X165250000Y-134225000I225000J0D01*
G01*
X165700000Y-134225000D01*
G75*
G02*
X165925000Y-134450000I0J-225000D01*
G01*
G37*
%TD*%
%TO.C,C7*%
G36*
G01*
X115650000Y-90675000D02*
X115150000Y-90675000D01*
G75*
G02*
X114925000Y-90450000I0J225000D01*
G01*
X114925000Y-90000000D01*
G75*
G02*
X115150000Y-89775000I225000J0D01*
G01*
X115650000Y-89775000D01*
G75*
G02*
X115875000Y-90000000I0J-225000D01*
G01*
X115875000Y-90450000D01*
G75*
G02*
X115650000Y-90675000I-225000J0D01*
G01*
G37*
G36*
G01*
X115650000Y-92225000D02*
X115150000Y-92225000D01*
G75*
G02*
X114925000Y-92000000I0J225000D01*
G01*
X114925000Y-91550000D01*
G75*
G02*
X115150000Y-91325000I225000J0D01*
G01*
X115650000Y-91325000D01*
G75*
G02*
X115875000Y-91550000I0J-225000D01*
G01*
X115875000Y-92000000D01*
G75*
G02*
X115650000Y-92225000I-225000J0D01*
G01*
G37*
%TD*%
%TO.C,C6*%
G36*
G01*
X134571000Y-87144800D02*
X135071000Y-87144800D01*
G75*
G02*
X135296000Y-87369800I0J-225000D01*
G01*
X135296000Y-87819800D01*
G75*
G02*
X135071000Y-88044800I-225000J0D01*
G01*
X134571000Y-88044800D01*
G75*
G02*
X134346000Y-87819800I0J225000D01*
G01*
X134346000Y-87369800D01*
G75*
G02*
X134571000Y-87144800I225000J0D01*
G01*
G37*
G36*
G01*
X134571000Y-85594800D02*
X135071000Y-85594800D01*
G75*
G02*
X135296000Y-85819800I0J-225000D01*
G01*
X135296000Y-86269800D01*
G75*
G02*
X135071000Y-86494800I-225000J0D01*
G01*
X134571000Y-86494800D01*
G75*
G02*
X134346000Y-86269800I0J225000D01*
G01*
X134346000Y-85819800D01*
G75*
G02*
X134571000Y-85594800I225000J0D01*
G01*
G37*
%TD*%
%TO.C,C5*%
G36*
G01*
X159675000Y-134450000D02*
X159675000Y-134950000D01*
G75*
G02*
X159450000Y-135175000I-225000J0D01*
G01*
X159000000Y-135175000D01*
G75*
G02*
X158775000Y-134950000I0J225000D01*
G01*
X158775000Y-134450000D01*
G75*
G02*
X159000000Y-134225000I225000J0D01*
G01*
X159450000Y-134225000D01*
G75*
G02*
X159675000Y-134450000I0J-225000D01*
G01*
G37*
G36*
G01*
X161225000Y-134450000D02*
X161225000Y-134950000D01*
G75*
G02*
X161000000Y-135175000I-225000J0D01*
G01*
X160550000Y-135175000D01*
G75*
G02*
X160325000Y-134950000I0J225000D01*
G01*
X160325000Y-134450000D01*
G75*
G02*
X160550000Y-134225000I225000J0D01*
G01*
X161000000Y-134225000D01*
G75*
G02*
X161225000Y-134450000I0J-225000D01*
G01*
G37*
%TD*%
%TO.C,C4*%
G36*
G01*
X159453800Y-78764000D02*
X159453800Y-78264000D01*
G75*
G02*
X159678800Y-78039000I225000J0D01*
G01*
X160128800Y-78039000D01*
G75*
G02*
X160353800Y-78264000I0J-225000D01*
G01*
X160353800Y-78764000D01*
G75*
G02*
X160128800Y-78989000I-225000J0D01*
G01*
X159678800Y-78989000D01*
G75*
G02*
X159453800Y-78764000I0J225000D01*
G01*
G37*
G36*
G01*
X157903800Y-78764000D02*
X157903800Y-78264000D01*
G75*
G02*
X158128800Y-78039000I225000J0D01*
G01*
X158578800Y-78039000D01*
G75*
G02*
X158803800Y-78264000I0J-225000D01*
G01*
X158803800Y-78764000D01*
G75*
G02*
X158578800Y-78989000I-225000J0D01*
G01*
X158128800Y-78989000D01*
G75*
G02*
X157903800Y-78764000I0J225000D01*
G01*
G37*
%TD*%
%TO.C,C3*%
G36*
G01*
X156837600Y-82878800D02*
X156837600Y-82378800D01*
G75*
G02*
X157062600Y-82153800I225000J0D01*
G01*
X157512600Y-82153800D01*
G75*
G02*
X157737600Y-82378800I0J-225000D01*
G01*
X157737600Y-82878800D01*
G75*
G02*
X157512600Y-83103800I-225000J0D01*
G01*
X157062600Y-83103800D01*
G75*
G02*
X156837600Y-82878800I0J225000D01*
G01*
G37*
G36*
G01*
X155287600Y-82878800D02*
X155287600Y-82378800D01*
G75*
G02*
X155512600Y-82153800I225000J0D01*
G01*
X155962600Y-82153800D01*
G75*
G02*
X156187600Y-82378800I0J-225000D01*
G01*
X156187600Y-82878800D01*
G75*
G02*
X155962600Y-83103800I-225000J0D01*
G01*
X155512600Y-83103800D01*
G75*
G02*
X155287600Y-82878800I0J225000D01*
G01*
G37*
%TD*%
%TO.C,C2*%
G36*
G01*
X164450000Y-79075000D02*
X163950000Y-79075000D01*
G75*
G02*
X163725000Y-78850000I0J225000D01*
G01*
X163725000Y-78400000D01*
G75*
G02*
X163950000Y-78175000I225000J0D01*
G01*
X164450000Y-78175000D01*
G75*
G02*
X164675000Y-78400000I0J-225000D01*
G01*
X164675000Y-78850000D01*
G75*
G02*
X164450000Y-79075000I-225000J0D01*
G01*
G37*
G36*
G01*
X164450000Y-80625000D02*
X163950000Y-80625000D01*
G75*
G02*
X163725000Y-80400000I0J225000D01*
G01*
X163725000Y-79950000D01*
G75*
G02*
X163950000Y-79725000I225000J0D01*
G01*
X164450000Y-79725000D01*
G75*
G02*
X164675000Y-79950000I0J-225000D01*
G01*
X164675000Y-80400000D01*
G75*
G02*
X164450000Y-80625000I-225000J0D01*
G01*
G37*
%TD*%
%TO.C,C1*%
G36*
G01*
X159350000Y-82125000D02*
X159350000Y-83075000D01*
G75*
G02*
X159100000Y-83325000I-250000J0D01*
G01*
X158600000Y-83325000D01*
G75*
G02*
X158350000Y-83075000I0J250000D01*
G01*
X158350000Y-82125000D01*
G75*
G02*
X158600000Y-81875000I250000J0D01*
G01*
X159100000Y-81875000D01*
G75*
G02*
X159350000Y-82125000I0J-250000D01*
G01*
G37*
G36*
G01*
X161250000Y-82125000D02*
X161250000Y-83075000D01*
G75*
G02*
X161000000Y-83325000I-250000J0D01*
G01*
X160500000Y-83325000D01*
G75*
G02*
X160250000Y-83075000I0J250000D01*
G01*
X160250000Y-82125000D01*
G75*
G02*
X160500000Y-81875000I250000J0D01*
G01*
X161000000Y-81875000D01*
G75*
G02*
X161250000Y-82125000I0J-250000D01*
G01*
G37*
%TD*%
M02*
